/* XPM */
static char * maximize_xpm[] = {
"11 11 21 1",
" 	c None",
".	c #1C1D1C",
"+	c #242225",
"@	c #FCFEFC",
"#	c #BCC2C0",
"$	c #C5C5B2",
"%	c #000000",
"&	c #A4A5A3",
"*	c #887C67",
"=	c #7C8382",
"-	c #898C8C",
";	c #959A94",
">	c #B4B6B3",
",	c #939594",
"'	c #9CA29F",
")	c #BCBDBC",
"!	c #848684",
"~	c #CCD2CB",
"{	c #D4D6D4",
"]	c #E3E3E3",
"^	c #EAECCA",
".++.+.++.+.",
"+@#$$$%#$&.",
"+#*=-;%&>=.",
".#=-,'%>)!.",
".$-;;&%)#=.",
"+$,'&>%$~=.",
".%%%%%%~{=+",
"+#&>>#~{]=.",
".$>##~{]^=+",
"+'======!=.",
"+.++.++.+++"};
