/* XPM */
static char * trq_shade2_xpm[] = {
"11 11 21 1",
" 	c None",
".	c #012527",
"+	c #012D2F",
"@	c #AAEDEF",
"#	c #42D7DD",
"$	c #4AD8DE",
"%	c #14CDD4",
"&	c #00A4AA",
"*	c #00A8AF",
"=	c #00B7BE",
"-	c #00C8D0",
";	c #0CCBD3",
">	c #30D3D9",
",	c #00C1C9",
"'	c #3ED6DC",
")	c #00AFB6",
"!	c #010101",
"~	c #5EDDE2",
"{	c #66DEE3",
"]	c #80E4E8",
"^	c #86E5E9",
".++.+.++.+.",
"+@#$$$$#$%.",
"+#&*=-;%>*.",
".#*=,;%>').",
".!!!!!!!!!.",
"+$,;%>>$~*.",
".!!!!!!!!!+",
"+#%>>#~{]*.",
".$>##~{]^*+",
"+;******)*.",
"+.++.++.+++"};
