/* XPM */
static char * trq_close2_xpm[] = {
"11 11 20 1",
" 	c None",
".	c #4E7172",
"+	c #497475",
"@	c #C5C8C8",
"#	c #63B3B6",
"$	c #68B5B7",
"%	c #39AAAF",
"&	c #029DA3",
"*	c #009EA5",
"=	c #11A2A8",
"-	c #24A6AB",
";	c #31A9AD",
">	c #54B0B4",
",	c #20A5AA",
"'	c #5FB2B5",
")	c #08A0A6",
"!	c #7DB8BB",
"~	c #86BBBC",
"{	c #9CC0C0",
"]	c #A2C0C2",
".++.+.++.+.",
"+@#$$$$#$%.",
"+#&*=-;%>*.",
".#*=,;%>').",
".$=--%>'#*.",
"+$,;%>>$!*.",
".$;%>##!~*+",
"+#%>>#!~{*.",
".$>##!~{]*+",
"+;******)*.",
"+.++.++.+++"};
