/* XPM */
static char * dia_xpm[] = {
"51 55 182 2",
"  	c #FFFFFF",
". 	c #FEFEFE",
"+ 	c #7E7E7E",
"@ 	c #FDFDFD",
"# 	c #7F7F7F",
"$ 	c #FCFCFC",
"% 	c #FBFBFB",
"& 	c #7D7D7D",
"* 	c #7C7C7C",
"= 	c #7B7B7B",
"- 	c #000000",
"; 	c #FAFAFA",
"> 	c #F8F8F8",
", 	c #F5F5F5",
"' 	c #F4F4F4",
") 	c #F2F2F2",
"! 	c #787878",
"~ 	c #00FF00",
"{ 	c #F9F9F9",
"] 	c #F6F6F6",
"^ 	c #F3F3F3",
"/ 	c #F0F0F0",
"( 	c #EDEDED",
"_ 	c #EAEAEA",
": 	c #747474",
"< 	c #EEEEEE",
"[ 	c #E9E9E9",
"} 	c #E4E4E4",
"| 	c #E1E1E1",
"1 	c #6F6F6F",
"2 	c #E7E7E7",
"3 	c #DBDBDB",
"4 	c #D6D6D6",
"5 	c #696969",
"6 	c #D8D8D8",
"7 	c #D0D0D0",
"8 	c #CACACA",
"9 	c #636363",
"0 	c #DADADA",
"a 	c #C7C7C7",
"b 	c #C0C0C0",
"c 	c #5D5D5D",
"d 	c #E0E0E0",
"e 	c #D5D5D5",
"f 	c #BFBFBF",
"g 	c #B7B7B7",
"h 	c #585858",
"i 	c #F7F7F7",
"j 	c #E8E8E8",
"k 	c #DEDEDE",
"l 	c #D2D2D2",
"m 	c #C6C6C6",
"n 	c #BABABA",
"o 	c #B1B1B1",
"p 	c #555555",
"q 	c #DDDDDD",
"r 	c #D1D1D1",
"s 	c #C4C4C4",
"t 	c #B8B8B8",
"u 	c #AEAEAE",
"v 	c #545454",
"w 	c #A6A6A6",
"x 	c #A8A8A8",
"y 	c #AFAFAF",
"z 	c #A9A9A9",
"A 	c #565656",
"B 	c #AAAAAA",
"C 	c #ACACAC",
"D 	c #B2B2B2",
"E 	c #DFDFDF",
"F 	c #D4D4D4",
"G 	c #C9C9C9",
"H 	c #BEBEBE",
"I 	c #B6B6B6",
"J 	c #EFEFEF",
"K 	c #393939",
"L 	c #464646",
"M 	c #5B5B5B",
"N 	c #060606",
"O 	c #0E0E0E",
"P 	c #1D1D1D",
"Q 	c #383838",
"R 	c #606060",
"S 	c #C1C1C1",
"T 	c #C5C5C5",
"U 	c #D9D9D9",
"V 	c #ECECEC",
"W 	c #767676",
"X 	c #F1F1F1",
"Y 	c #010101",
"Z 	c #020202",
"` 	c #262626",
" .	c #666666",
"..	c #E5E5E5",
"+.	c #CBCBCB",
"@.	c #616161",
"#.	c #C2C2C2",
"$.	c #C8C8C8",
"%.	c #E6E6E6",
"&.	c #FF6600",
"*.	c #737373",
"=.	c #535353",
"-.	c #1C1C1C",
";.	c #040404",
">.	c #0C0C0C",
",.	c #3D3D3D",
"'.	c #CCCCCC",
").	c #626262",
"!.	c #717171",
"~.	c #E2E2E2",
"{.	c #676767",
"].	c #2E2E2E",
"^.	c #080808",
"/.	c #050505",
"(.	c #202020",
"_.	c #E3E3E3",
":.	c #CDCDCD",
"<.	c #DCDCDC",
"[.	c #323232",
"}.	c #131313",
"|.	c #505050",
"1.	c #CFCFCF",
"2.	c #646464",
"3.	c #D7D7D7",
"4.	c #6A6A6A",
"5.	c #282828",
"6.	c #141414",
"7.	c #707070",
"8.	c #6E6E6E",
"9.	c #6B6B6B",
"0.	c #656565",
"a.	c #686868",
"b.	c #6C6C6C",
"c.	c #6D6D6D",
"d.	c #4F4F4F",
"e.	c #CECECE",
"f.	c #363636",
"g.	c #D3D3D3",
"h.	c #C3C3C3",
"i.	c #4D4D4D",
"j.	c #EBEBEB",
"k.	c #222222",
"l.	c #727272",
"m.	c #BBBBBB",
"n.	c #B9B9B9",
"o.	c #313131",
"p.	c #B5B5B5",
"q.	c #404040",
"r.	c #090909",
"s.	c #4A4A4A",
"t.	c #B3B3B3",
"u.	c #B0B0B0",
"v.	c #414141",
"w.	c #ADADAD",
"x.	c #0A0A0A",
"y.	c #4B4B4B",
"z.	c #A7A7A7",
"A.	c #151515",
"B.	c #A5A5A5",
"C.	c #808080",
"D.	c #A4A4A4",
"E.	c #212121",
"F.	c #191919",
"G.	c #5A5A5A",
"H.	c #3C3C3C",
"I.	c #181818",
"J.	c #595959",
"K.	c #525252",
"L.	c #161616",
"M.	c #1B1B1B",
"N.	c #444444",
"O.	c #101010",
"P.	c #2C2C2C",
"Q.	c #757575",
"R.	c #252525",
"S.	c #121212",
"T.	c #434343",
"U.	c #5E5E5E",
"V.	c #777777",
"W.	c #7A7A7A",
"X.	c #797979",
"Y.	c #424242",
"    . . . . + @ @ . . . .                           #                                       #         ",
". . @ $ $ % & % % % $ $ @ . .                       #                                       #         ",
"+ + & & * * = - - - - - - - - - # # # # # # # # # # # # # # # # # # # # # # # # # # # # # # # # # # # ",
"% ; > , ' ) ! - ~ ~ ~ ~ ~ ~ ~ - .                   #                                       #         ",
"{ ] ^ / ( _ : - ~ ~ ~ ~ ~ ~ ~ - @ .                 #                                       #         ",
"] ) < [ } | 1 - ~ ~ ~ ~ ~ ~ ~ - $ .                 #                                       #         ",
"^ < 2 | 3 4 5 - ~ ~ ~ ~ ~ ~ ~ - % @ .               #                                       #         ",
"/ [ | 6 7 8 9 - ~ ~ ~ ~ ~ ~ ~ - { $ .               #                                       #         ",
"( } 0 7 a b c - ~ ~ ~ ~ ~ ~ ~ - > $ .               #                                       #         ",
"_ d e 8 f g h - ~ ~ ~ ~ ~ ~ ~ - i % @ .             #                                       #         ",
"j k l m n o p - - - - - - - - - i % @ .             #                                       #         ",
"j q r s t u v w x y t s r q j / ] % @ .             #                                       #         ",
"2 q 7 s t u v w z y - - r q 2 / ] ; $ @ . . .       #                                       #         ",
"j k l m n o A B C D - - l k j / , { % $ @ @ @ @ @ @ + . . . . . . .                         #         ",
"j E F G H I h y o g - - F E j J ' i { ; % % % % % % & % % % $ $ $ @ @ . .                   #         ",
"[ d - - - - - - - - - - - - - - - - - - - - - - - - - - - - - - - K L M @ @ .               #         ",
"j d - - - - - - - - - - - - - - - - - - - - - - - - - - - - - - - - N O P Q R @ .           #         ",
"2 d 6 r G s R f S T - - U E } 2 _ V V ( ( ( ( ( ( ( W ( ( < < J / X A P Y Y Z `  .. .       #         ",
"..E 6 r +.m @.#.s $.- - 6 q | } ..%.2 2 2 %.2 2 2 &.*.2 2 2 2 j [ _ V < =.-.;.- >.,.@ .     #         ",
"} k 6 r '.a ).s m 8 - - 6 3 k d | | | | d d d | | &.!.~.| | | | | ~.} 2 _ {.].^.- /.(.p . . #         ",
"_.q 6 l :.$.9 m a +.- - 6 3 q k k k q <.3 3 3 <.&.&.&.q q <.3 0 0 3 <.k | ..[ [./.- - }.|.. #         ",
"} E U F 1.+.2.$.8 :.- - U <.q k q <.0 U 6 3.6 U &.&.&.<.3 0 6 4 e F F 4 6 <.| 4.5.- - - 6.p # .       ",
"*.7.8.9.5 {.0.0. .a.- - 8.1 1 1 1 8.b.9.9.4.4.&.&.&.&.&.8.c.9.4.5 {.{.{.a.5 9.8.d.O - - Y (.R # # # # ",
"_ ..d 3 4 l a.7 l e - - | _._.~.d q 0 3.e F F &.&.<.&.&.k q 0 4 l e.+.G G +.e.F 0 f.Z - - - f.@ .     ",
"< _ ..d 0 4 4.F 4 0 - - %.2 2 %._.E 0 4 F g.&.&.&.k &.&.&.| k U F e.G m h.h.m 8 r i.>.- - - }.p @ .   ",
") < [ } E 3 b.6 0 k - - _ j.j.[ ..d 0 4 l r &.&.0 E !.&.&.%._.k 6 r +.T b H H #.a ).k.- - - - f.$ .   ",
", ) ( j ~.k c.3 q | - - ( < ( _ ..E U F 7 &.&.&.U k l.&.&.&.2 _.q e :.m f m.n.n f m o.- - - - -.c @ . ",
"> ' J _ ..d 8.q E _.- - < J ( [ } k 3.l e.&.&.l 3.q !.j &.&._ %.| U r - b n.p.p.t H q.- - - - r.s.$ . ",
"{ ] X V %.| 1 k E _.- - ( ( j.2 | 3 F 1.&.&.&.1.F 0 7.%.&.&.&.j _.<.F - - - t.u.D g v.- - - - - v.% @ ",
"; i ) V 2 | 1 q k ~.- - - - - - - - - - - - - - - - - - - - - - - - - - h.n.- - w.o v.- - - - - v.; @ ",
"% i ^ ( 2 | 8.<.<.E - - - - - - - - - - - - - - - - - - - - - - - - - - s n - - B w.v.- - - - - v.{ $ ",
"% i ) V %.d 8.U U 3 - - d E <.6 g.e.G &.&.s s m G :.5 4 3 k &.&.E <.4 - - - o B x z v.- - - - x.y.> % ",
"% i ) V ..E c.3.4 3.- - 0 6 e r :.G &.&.&.h.h.s m $. .7 F 3.&.&.&.U F - s n o B w z.v.- - - - A.A i % ",
"% i ) V } k b.e g.g.- - F l 1.+.$.T &.&.#.#.#.#.h.s 9 8 :.7 g.&.&.e l '.s n o z B.C.- - - - - ` {.] % ",
"% i ) j.} q 9.g.r r - - 1.:.8 a s &.&.&.h.h.h.#.#.#.@.T $.+.e.&.&.&.7 +.h.n u.z D.@.E.- - - ;.q.J ] ; ",
"% i ) j.} q 9.g.7 1.- - '.8 a s h.&.&.&.&.&.&.&.&.&.&.&.&.&.&.&.&.&.1.8 h.n.u.x D.i.>.- - - F.G.J ] ; ",
"% i ) V } q 9.g.r 7 - - +.$.m h.&.&.&.&.&.&.&.&.&.&.&.&.&.&.&.&.&.&.&.8 #.n.u.x D.Q - - - /.H.2 / ] % ",
"% i ) V ..k b.e g.r - - '.G m s s T m $.8 8 8 $.m s @.h.T $.'.7 l g.7 +.#.n.u.z @.E.- - - ` {.j X i % ",
"% i ) V %.E c.3.e F - - 1.'.G a m a G +.:.:.'.+.G a ).m a +.1.l e F r +.#.n.u.z K - - Y I.J.7._ ) > % ",
"% i ^ ( %.| 8.U 6 3.- - g.1.:.+.8 +.:.e.7 7 7 e.'.8 2.8 +.1.l 4 3.4 l +.#.t u.K.L.- Z A.|.3.!.V ' { $ ",
"% i ^ ( 2 | 8.3 0 0 - - 3.F r 7 1.1.r l g.F g.l 7 1.{.1.7 g.4 U U 3.l 8 S t |.I.- ;.M.v 7 <.*.J , ; @ ",
"; i ) ( 2 | 1 <.3 <.- - 3 U 3.e e e 4 3.6 6 6 3.e F 4.F e 6 0 3 0 3.r G b N.O.- /.P.R 8 4 | Q.) i % @ ",
"* = ! W *.7.1 8.8.1 - - 7.1 8.c.c.c.c.8.8.8.8.8.c.c.c.c.c.8.8.8.c.9.{.J.R.^.- S.T.U.9 a.8.*.V.W.* + # ",
"> ' J _ ..d 8.3 <.k - - _.~.~.| d d | | | | | | d E 1 E E k k <.U d.- - Z O.T.n H T 1.U ~.j.X.i % @ . ",
", ) - - - - - - - - - - - - - - - - - - - - - - - - - - - - - - - - - N. .H H S m e.3.d j / W.{ $ .   ",
") < - - - - - - - - - - - - - - - - - - - - - - - - - - - - Y.d.M r '.a T s T G 7 3.E 2 < ' * % @ .   ",
"< _ ..E 0 4 5 g.e 6 - - ~.} ..%.%.%.%.%.%.%.%.....} !.~.d k 3 6 F 7 :.+.8 +.e.g.U d 2 ( ^ i & @ .     ",
"_ ..d 3 4 l {.1.r F - - E | _._.} } } } } } } } _._.!.d E q 0 3.F l 7 7 r g.3.<.~.j < ^ i ; + .       ",
"%.| <.3.l e.0.+.:.r - - <.k d | | | | | | | | | | | 7.E q <.0 6 3.4 4 3.U <.d .._ J ^ i ; $ + .       ",
"} E U F 1.+.2.G - - - - - - k E d d d d d d d d d d 1 E k q <.<.3 <.q k | ..j ( X ' i ; $ @ #         ",
"} k U g.e.8 2.$.- :.l 4 0 - E d d | | | | | | | | | 7.| | | | | | ~.} %.[ V / ^ ] > % $ . . #         ",
"..d 0 e 7 +.2.G +.- g.6 - E | _._.} } } } } } } } } l.....%.%.2 j _ j.< / ^ , > ; % @ . .   #         ",
"j _.q 6 l e. .'.e.- 3.<.- _...2 j j j j [ [ [ [ [ [ : _ j.j.V ( J / ) ' ] > { % $ @ .       #         ",
"V 2 ~.<.3.l a.7 l 4 - - ..j j.V ( < < < < < < < < J V./ / X ) ^ ' ] i > ; % $ @ . .         #         ",
"/ j.%.| 3 3.4.e 3.3 - - _ ( / ) ^ ^ ^ ^ ' ' ' ' ' ' W., , ] i > { ; % $ $ @ . .             #         "};
