/* XPM */
static char * gimp_icon_xpm[] = {
"73 43 237 2",
"  	c None",
". 	c #A49E8F",
"+ 	c #7C7664",
"@ 	c #B4B2AC",
"# 	c #CCBE9C",
"$ 	c #7C725D",
"% 	c #B4AEA8",
"& 	c #CCC2AC",
"* 	c #C4BAA4",
"= 	c #544234",
"- 	c #8C8672",
"; 	c #74725C",
"> 	c #746E5C",
", 	c #9C9A94",
"' 	c #BCB299",
") 	c #443224",
"! 	c #2C1E0C",
"~ 	c #7C6E5C",
"{ 	c #948A7C",
"] 	c #B4AA8F",
"^ 	c #746A64",
"/ 	c #2C1A0C",
"( 	c #746A5C",
"_ 	c #6C6A54",
": 	c #ACAAA4",
"< 	c #A49A7F",
"[ 	c #BFBCB2",
"} 	c #B4B6B4",
"| 	c #949293",
"1 	c #746A54",
"2 	c #6C6654",
"3 	c #A4A6A4",
"4 	c #ACA68C",
"5 	c #ACA288",
"6 	c #9C927C",
"7 	c #9C8E7C",
"8 	c #746654",
"9 	c #645644",
"0 	c #3C260C",
"a 	c #34220C",
"b 	c #341E0C",
"c 	c #4C423C",
"d 	c #5C524C",
"e 	c #74726C",
"f 	c #747674",
"g 	c #7C7674",
"h 	c #9C9E9C",
"i 	c #B4B2B4",
"j 	c #7C7A64",
"k 	c #6C6254",
"l 	c #A4A29C",
"m 	c #9C967C",
"n 	c #948A74",
"o 	c #6C5A44",
"p 	c #442E14",
"q 	c #442A14",
"r 	c #241A0C",
"s 	c #241604",
"t 	c #24160C",
"u 	c #1C1204",
"v 	c #140E06",
"w 	c #342E27",
"x 	c #6C665E",
"y 	c #64624C",
"z 	c #ACA6A1",
"A 	c #C4BAAC",
"B 	c #543E24",
"C 	c #4C2E14",
"D 	c #342614",
"E 	c #3C220C",
"F 	c #1C0E04",
"G 	c #443E3C",
"H 	c #645E4C",
"I 	c #7C6A54",
"J 	c #442A0C",
"K 	c #3C2A0C",
"L 	c #140A04",
"M 	c #0C0A07",
"N 	c #3C3A34",
"O 	c #948E74",
"P 	c #645A4C",
"Q 	c #6C6E6C",
"R 	c #543A1C",
"S 	c #1C1604",
"T 	c #A4A2A4",
"U 	c #5C5A44",
"V 	c #5C5645",
"W 	c #847E74",
"X 	c #C4BEB4",
"Y 	c #4C3214",
"Z 	c #0C0604",
"` 	c #1C1614",
" .	c #6C6A5C",
"..	c #5C5244",
"+.	c #ACAA9C",
"@.	c #14120C",
"#.	c #2C2A24",
"$.	c #544E44",
"%.	c #5C5A4C",
"&.	c #64625C",
"*.	c #241E1C",
"=.	c #2C2E2B",
"-.	c #443E34",
";.	c #4C4A3C",
">.	c #544E3C",
",.	c #646254",
"'.	c #545244",
").	c #84725C",
"!.	c #5C462C",
"~.	c #2C2214",
"{.	c #2C2624",
"].	c #34322C",
"^.	c #343234",
"/.	c #2C2A2C",
"(.	c #343224",
"_.	c #3C362D",
":.	c #3C3A2C",
"<.	c #444234",
"[.	c #4C463A",
"}.	c #8C826C",
"|.	c #54524C",
"1.	c #44463C",
"2.	c #44423C",
"3.	c #443A31",
"4.	c #34362C",
"5.	c #FFFFFF",
"6.	c #FCFAFC",
"7.	c #ECEAEB",
"8.	c #84765C",
"9.	c #7C7A7B",
"0.	c #9C9694",
"a.	c #ACAAAC",
"b.	c #8C8A84",
"c.	c #544A3C",
"d.	c #645E57",
"e.	c #FCFEFC",
"f.	c #F4F6F4",
"g.	c #F4F2F4",
"h.	c #D4D6D4",
"i.	c #8C7E6C",
"j.	c #847A64",
"k.	c #D4CECC",
"l.	c #CCCECC",
"m.	c #CCCACC",
"n.	c #BCBEBC",
"o.	c #C4BEBC",
"p.	c #746E64",
"q.	c #CCCAC4",
"r.	c #E4E6E4",
"s.	c #E4E2E4",
"t.	c #DCDADC",
"u.	c #DCDEDC",
"v.	c #5C4E3C",
"w.	c #646264",
"x.	c #9C9A9C",
"y.	c #5C5A5A",
"z.	c #444244",
"A.	c #444644",
"B.	c #4C4E4C",
"C.	c #F4F2EC",
"D.	c #C4C2C4",
"E.	c #BCB6A4",
"F.	c #ECEEEC",
"G.	c #9C9A8C",
"H.	c #4C4234",
"I.	c #545654",
"J.	c #8C8E8C",
"K.	c #3C3A3C",
"L.	c #949694",
"M.	c #F4EEEC",
"N.	c #ACAEAC",
"O.	c #C4C6C4",
"P.	c #E4DEDC",
"Q.	c #D4D2D4",
"R.	c #4C4A4C",
"S.	c #545254",
"T.	c #5C5E5C",
"U.	c #848684",
"V.	c #6C6A6A",
"W.	c #242624",
"X.	c #3C3E3C",
"Y.	c #040204",
"Z.	c #646664",
"`.	c #3C3E31",
" +	c #8C8A8C",
".+	c #343634",
"++	c #4C4A44",
"@+	c #CCC6C0",
"#+	c #141614",
"$+	c #040604",
"%+	c #0C0E0C",
"&+	c #7C7E7C",
"*+	c #1C1A1C",
"=+	c #4C4644",
"-+	c #747274",
";+	c #948E89",
">+	c #1C1E1C",
",+	c #848284",
"'+	c #847E6A",
")+	c #242224",
"!+	c #84826C",
"~+	c #BCBABC",
"{+	c #A4A294",
"]+	c #949284",
"^+	c #1C1A14",
"/+	c #3C2E24",
"(+	c #4C3E2C",
"_+	c #5C4A3C",
":+	c #544A34",
"<+	c #54463C",
"[+	c #644E34",
"}+	c #6C523C",
"|+	c #745A3C",
"1+	c #7C6244",
"2+	c #84664C",
"3+	c #8C6E50",
"4+	c #8C7254",
"5+	c #9C7A5C",
"6+	c #A4825C",
"7+	c #AC8A64",
"8+	c #AC8E64",
"9+	c #947A58",
"0+	c #2C261C",
"a+	c #947654",
"b+	c #9C7E5C",
"c+	c #B4926C",
"d+	c #BC9A70",
"e+	c #BC9E74",
"f+	c #AC9274",
"g+	c #24221C",
"h+	c #746254",
"i+	c #A48660",
"j+	c #C4A274",
"k+	c #141214",
"l+	c #64563C",
"m+	c #B4966C",
"n+	c #8C7A6C",
"                                                                                                                          . + @                   ",
"                              #                                                                                           $ $ %                   ",
"                              & *                                         % =                                           - ; > ,                   ",
"                                ' '                                       ) !                                         . ; ~ > {                   ",
"                                ' ] ]                                     ^ /                                       % > > ( _ :                   ",
"                                * ] < .                           [ } } } | / } }                                   > ( 1 _ 2 3                   ",
"                                  4 5 6 7         [ { 8 9 0 0 0 a a a b ! / / c d e f g h i [                     j 1 1 2 2 k l                   ",
"                                  ' < m n - l , o p q 0 0 0 0 a a a b ! / ! r s t s s u u v w x               } + 1 x 2 k y k z                   ",
"                                  A 5 6 - $ B C q q q q 0 0 D E a b ! ! / r / s t u u u F v v v G   [       : > 1 2 2 k H H H }                   ",
"                                    5 m I C C p p J K 0 0 E a a a b ! / / / s s t u u F v v v L M N       O > 1 2 k y H P P Q                     ",
"                                    % < R C C p J 0 q 0 0 0 a a b ! ! / / s s S t u u u v v L L M M   T ; ( ( 2 2 y H P U V W                     ",
"                                    X m Y J p J J q 0 0 E a a b b ! / / r s t s u u F v v L M M Z `  .k _ 2 2 k k H P V V ..                      ",
"                                      +.R C p J q 0 0 D 0 a a a ! / ! / s r t u u u @.F v L L u #.$.U H k 2 k y H P %.V V &.                      ",
"                                      [ $ J p J K q 0 E a a b ! ! ! / r s s s u u F F *.*.=.w -.;.>.V P y ,.k P P %.V ..'.g                       ",
"                                      } 4 ).!.J 0 E 0 E a a b b a ~.~.~.#.{.#.].^./.#.w (._.:.<.[.>...U P H P %.P V V ..%.                        ",
"                                      [ . O }.j ( ,.V |.$.[.1.2.<.-.3.:._.4.].].(.].]._.:.-.-.[.[.>.'...V U V V V ..'.'.g                         ",
"                                      5.6.7.X }.8.> 2 H 9.0.: a.h b. .;.[.[.<.-.-.-.-.-.<.<.[.;.;.c.$.'.'...'...'...'.d.                          ",
"                                  5.e.6.6.f.g.h.i.j.+ @ k.l.l.m.m.n.o., %.V '.>.>.;.;.;.[.;.[.;.;.c.;.c.>.c.>.>.$.>.'.p.                          ",
"                                  e.f.6.f.f.f.f.X }.q.7.r.s.t.h.t.u.u.h.@ 2 k H %.9 '.v.>.;.c.;.[.[.[.[.[.[.$.;.>.>.w.Q                           ",
"            x.y.z.A.B.Q         C.f.6.f.h.D.u.6.7.E.f.6.g.r.r.F.F.7.7.r.s.G.1 k k H V ..'.c.;.[.H.<.<.-.<.[.[.;.;.I.y.                            ",
"          J.A.z.A.K./.*.A.L.% < e.M.6.n.N.^.=.O.6.P.6.e.F.g.f.s.Q.Q.u.7.u.n.1 _ k H P ..'.;.[.<.<.-.3.-.-.-.1.[.R.S.T.                            ",
"        L.z.w.U.U.V.A.=.W.X.> 7 F.g.e.S.T =.Y.=.F.F.6.f.M.f.h.x.Z./.Z.k.t.l.> 2 k U %...>.[.[.<.-.:.`.:.`.-.-.`.A.S.                              ",
"        w.B.| O.D. +T..+{.W.++$ @+f.e.#+{.$+Y.%+@+M.f.f.F.e.0.} i ^.%+&+Q.O.1 2 k H V '.>.[.<.-.3.`.:._.3.:.].K.A.                                ",
"        K.I.T h.l.L.T.K.=.=.K.'.n u.6.w.%+Y.%+f - Q.g.g.g.f.w.9.&+*+Y.R.l.3 8 y H U ..$.c.[.-.-.:.:._.:.:.w =.K.R.                                ",
"      L.=.B. +a.3 9.B.^.^..+X.=+; i.D.u.-+z.U.- }.% F.F.7.g.T.#+#+Y.Y.y.O.;+2 k P V $.>.[.<.-.3.:.3._.:.N W.=.X.                                  ",
"      | >+G V.,+9.y.z.^..+G A.B.y.j.'+j.'+}.i.}.}.'+@+7.r.s.h W.Y.Y.>+N., 2 k H U V '.[.[.<.<.`._.:.:.3.w W.^.z.                                  ",
"      J.)+^.B.w.I.R..+K.X.A.S.I.V > 8.+ j.j.'+'+i.'+!+~+u.t.h.T B.B.a.l 1 k H P %...c.;.[.<.-.-.:.:._.:.)+W..+A.                                  ",
"      h W.W.X.A.A.X.X.X.R.B.y.T.w.k > > + + j.j.'+j.8.+ {+% m.Q.l.} ]+2 k y H V '.$.;.[.H.<.-.:.3.:.3.].>+/.K.R.                                  ",
"        =.)+=.K.X.X.z.R.S.I.w.x V.%.2 1 ; $ + j.+ j + + $ ; > ( > 8 2 k ,.H V [.<.c.c.<.<.-.3._.:.:.:.#.)+].z.                                    ",
"        w.W.=..+K.z.R.B.y.w.Z.-+V.%.H y 1 > ; $ + $ $ $ > > 1 _ 2 k k H H P '._.-.[.[.<.-.:.:._.3.:._.>+W..+                                      ",
"        T K.^.K.A.A.S.I.w.V.Q f V...U P H 2 1 > > > > 1 1 1 2 k k H H P U ..w :.2.[.<.-.3.:._.:.:.-.W.)+^.X.                                      ",
"          f R.z.R.I.y.Z.Q -+9.&+y.;.'.V V H y 2 1 1 2 2 k ,.y H P U %.V V =.].2.$.;.-.`.3.:.:.:.3.=.^+/..+                                        ",
"          } f B.I.y.Z.V.-+9.U.f c.;.c.'...V 9 H k ,.H H H P P %.V $.'.[./+(+_+9 k P :+<+:.:.:.:._.>+)+].X.B.                                      ",
"                Z.w.Q -+&+&+W y.[.[.[.;.>.>.'.V P U 9 V V V ..V '.c.(.) = [+}+|+1+2+3+4+5+6+7+8+7+4+9+$ w.y.w.-+U.T N.[       T i                 ",
"                  &+-+9.&+V.|.;.[.<.1.[.;.>.$.>.V '.'.$.'.'.>.[.0+*.#.3.= [+}+|+1+2+4+a+b+6+7+c+d+e+f+ +U.&+f -+Q Q U.h x.I.K.A.B.Z.h             ",
"                    | _ k P '.c.[.<.H.[.[.;.[.>.>.c.;.<.].0+>+>+g+w _.-.'.,. .> h+o 4+9+b+i+8+c+d+j+| N.i } } i N.z T  +=.K.z.R.S.y.w.&+          ",
"                        V.-.(.#.w (.(.4./+(.g+^+^+#+@.k+` >+g+w 4.-.;.|.,. .p.x -.-._.<.<+l+4+m+e+j+W x.3 i ~+D.O.O.O.R..+X.z.B.S.T.Z.Q f T       ",
"                            &.=.@.@.%+M M M $+M M k+#+>+g+=._.`.=+'.y.,.x Z.d.`.:.:.(.` @.#+*+)+c 8 n+&+,+ +L.h 3 N.} B..+X.R.B.y.w.V.-+9.&+J.| } ",
"                              x.J.y.].^+%+%+M %+k+^+g+#.4.N 2.$.V d.x ,.d.>.3.(.g+k+@.k+#+*+)+W.^.K.A.B.    ,+J.|       w.z.R.S.T.w.V.f &+U.h     ",
"                                    9.Q Z.z._./.#.#.].N -.;.|.y.,.,.V 1.W.*.%+k+k+#+#+*+>+W.#.^..+z.R.S.                  L.Q w.T.V.-+&+h         ",
"                                        -+Z.I.B.X..+=.W.)+>+>+^+*+*+#+^+*+^+*+*+>+>+)+W./.=.                                                      ",
"                                              y.B.A.X.K.^.=./.W.W.W./.W.W.W.W././.=.^.                                                            ",
"                                                                                                                                                  "};
