/* XPM */
static char *smallbook_xpm[] = {
/* width height ncolors chars_per_pixel */
"32 32 7 1",
/* colors */
"` c black",
"a c tan",
"b c grey",
"c c sienna",
"d c red",
"e c white",
"f c lemon chiffon",
/* pixels */
"eeeeeeeeeeeeeeeeeeeeeee`eeeeeeee",
"eeeeeeeeeeeeeeeeeeeeee`f`eeeeeee",
"eeeeeeeeeee``eeee`````ff`eeeeeee",
"eeeeeeee````f````fffffff`eeeeeee",
"eee`eee`fffff`fffffbbbbff`eeeeee",
"ee`f```ffffff`ffffbbfffff`eeeeee",
"ee`fffffffbfff`fbffffffff``eeeee",
"ee`fffffbbffff`fbfbbbbbbff`eeeee",
"ea`ffffbbfffbf`fffbfffffff`eeeee",
"a```bbbfffbbfff`ffbffffffffeeeee",
"aa``fffffffffff`fbffffbbbbf`eeee",
"`a`afffbbfffffff`ffffbfffff``eee",
"d`a`ffffffffbfff`fffbffffffff`ee",
"d``a`fffbffbfffff`fbffffffbff`ee",
"d``a`ffbffbffbfff`fbfffbbbbbf`ee",
"d`aaa`fffbffbffff`ffffbbfffff`ee",
"d`a`a`ffbffbffffff`fffbfffff```e",
"dd`aaa`fffbffffbbf`ffbfffff`aa`e",
"ed`a`a`ffbffbfffff`fbfffff``aae`",
"ed`a`aa`fffbffffff`ffff```aaaa`d",
"eed`a`aa`fbffffffff`f`aaaaaaaadd",
"eed`a`aa`ffffffffff`f`aaaaaa`dde",
"eeed`a`aafff```ffff```a`````ddee",
"eeed`a`aaf``a`````````ddddddeeee",
"eeed`a`aaf`aaaaaaa````deeeeeeeee",
"eeed``a`a`a```````ccc`eeeeeeeeee",
"eeeed`a`a```a`da`dcc`deeeeeeeeee",
"eeeed`aa``a``deddd``deeeeeeeeeee",
"eeeeed`a``ddeeeeeeeeeeeeeeeeeeee",
"eeeeeed``ddeeeeeeeeeeeeeeeeeeeee",
"eeeeeedaddeeeeeeeeeeeeeeeeeeeeee",
"eeeeeeedeeeeeeeeeeeeeeeeeeeeeeee"
};
