/* XPM */
static char * mini_sdd_tool_xpm[] = {
"26 27 212 2",
"  	c None",
". 	c #000065",
"+ 	c #00004C",
"@ 	c #654100",
"# 	c #4C3100",
"$ 	c #650000",
"% 	c #4C0000",
"& 	c #000066",
"* 	c #0000CD",
"= 	c #00009A",
"- 	c #664200",
"; 	c #CD8500",
"> 	c #9A6400",
", 	c #660000",
"' 	c #CD0000",
") 	c #9A0000",
"! 	c #4040DA",
"~ 	c #3E3ED9",
"{ 	c #3F3FD9",
"] 	c #4F4FDC",
"^ 	c #1E1EA0",
"/ 	c #DAA440",
"( 	c #D9A33E",
"_ 	c #D9A33F",
": 	c #DCAB4F",
"< 	c #A0721E",
"[ 	c #DA4040",
"} 	c #D93E3E",
"| 	c #D93F3F",
"1 	c #DC4F4F",
"2 	c #A01E1E",
"3 	c #7777E4",
"4 	c #4B4BDC",
"5 	c #6B6BE2",
"6 	c #3232A3",
"7 	c #E4BE77",
"8 	c #DCA94B",
"9 	c #E2B86B",
"0 	c #A37C32",
"a 	c #E47777",
"b 	c #DC4B4B",
"c 	c #E26B6B",
"d 	c #A33232",
"e 	c #0A0ACF",
"f 	c #0707CE",
"g 	c #CF8A0A",
"h 	c #CE8807",
"i 	c #CF0A0A",
"j 	c #CE0707",
"k 	c #000052",
"l 	c #0000A5",
"m 	c #000079",
"n 	c #00005A",
"o 	c #33211E",
"p 	c #734400",
"q 	c #5A0000",
"r 	c #510000",
"s 	c #A50000",
"t 	c #7C0000",
"u 	c #332166",
"v 	c #9A4200",
"w 	c #4747DB",
"x 	c #3C3CD8",
"y 	c #5757DE",
"z 	c #D89F37",
"A 	c #D69A2C",
"B 	c #9F501C",
"C 	c #DB4747",
"D 	c #D83C3C",
"E 	c #DC4C4C",
"F 	c #A02020",
"G 	c #5050DC",
"H 	c #8585E7",
"I 	c #43316A",
"J 	c #D18F14",
"K 	c #9C4A10",
"L 	c #DC5050",
"M 	c #1616D1",
"N 	c #0B0BCF",
"O 	c #0505CE",
"P 	c #D19016",
"Q 	c #CE8805",
"R 	c #9A4505",
"S 	c #D11616",
"T 	c #CF0B0B",
"U 	c #CE0505",
"V 	c #003400",
"W 	c #001829",
"X 	c #00157A",
"Y 	c #1F243D",
"Z 	c #AE7100",
"` 	c #763E00",
" .	c #7A1500",
"..	c #5C1000",
"+.	c #002700",
"@.	c #004600",
"#.	c #008B00",
"$.	c #006800",
"%.	c #3A3A3A",
"&.	c #1D401D",
"*.	c #109210",
"=.	c #59B359",
"-.	c #30A130",
";.	c #38A538",
">.	c #189618",
",.	c #49AC49",
"'.	c #299E29",
").	c #707070",
"!.	c #585858",
"~.	c #6A6A6A",
"{.	c #767676",
"].	c #325532",
"^.	c #004500",
"/.	c #40A840",
"(.	c #38A438",
"_.	c #088E08",
":.	c #289D28",
"<.	c #70BE70",
"[.	c #48AC48",
"}.	c #50B050",
"|.	c #646464",
"1.	c #6F6F6F",
"2.	c #878787",
"3.	c #4A6C4A",
"4.	c #80C580",
"5.	c #30A030",
"6.	c #088F08",
"7.	c #199619",
"8.	c #464646",
"9.	c #4C4C4C",
"0.	c #535353",
"a.	c #204320",
"b.	c #119211",
"c.	c #003E00",
"d.	c #007C00",
"e.	c #005D00",
"f.	c #3E372A",
"g.	c #1F3A15",
"h.	c #570000",
"i.	c #AE0000",
"j.	c #830000",
"k.	c #925F00",
"l.	c #0000AE",
"m.	c #000083",
"n.	c #D83B3B",
"o.	c #D42626",
"p.	c #DA4646",
"q.	c #9E1616",
"r.	c #D8A13B",
"s.	c #D89F36",
"t.	c #D69C30",
"u.	c #DAA646",
"v.	c #9E6E16",
"w.	c #3B3BD8",
"x.	c #2626D4",
"y.	c #DE5959",
"z.	c #A53B3B",
"A.	c #DBA84A",
"B.	c #A5803B",
"C.	c #8B8BE8",
"D.	c #10109D",
"E.	c #D42222",
"F.	c #CF8A0B",
"G.	c #D29017",
"H.	c #D49522",
"I.	c #250000",
"J.	c #400000",
"K.	c #C20000",
"L.	c #910000",
"M.	c #734A00",
"N.	c #0000C2",
"O.	c #000087",
"P.	c #000025",
"Q.	c #00001C",
"R.	c #523500",
"S.	c #D42525",
"T.	c #D42323",
"U.	c #DA4343",
"V.	c #9D1212",
"W.	c #D79D33",
"X.	c #D79D32",
"Y.	c #9D6C12",
"Z.	c #2525D4",
"`.	c #2323D4",
" +	c #4343DA",
".+	c #12129D",
"++	c #DB4848",
"@+	c #D31D1D",
"#+	c #E06464",
"$+	c #A22E2E",
"%+	c #DBA748",
"&+	c #D79E33",
"*+	c #9C6B10",
"=+	c #4848DB",
"-+	c #1D1DD3",
";+	c #6464E0",
">+	c #2E2EA2",
",+	c #D83939",
"'+	c #D00E0E",
")+	c #D52B2B",
"!+	c #D8A039",
"~+	c #D59A2B",
"{+	c #9C6A0E",
"]+	c #3939D8",
"^+	c #0E0ED0",
"/+	c #2B2BD5",
"(+	c #CB0000",
"_+	c #980000",
":+	c #CB8400",
"<+	c #986300",
"[+	c #0000CB",
"}+	c #000098",
"  . . . . +           @ @ @ @ #           $ $ $ $ % ",
"& * * * * =         - ; ; ; ; >         , ' ' ' ' ) ",
"& ! ~ { ] ^         - / ( _ : <         , [ } | 1 2 ",
"& 3 4 4 5 6         - 7 8 8 9 0         , a b b c d ",
"& e f f f =         - g h h h >         , i j j j ) ",
"k l l l l m n n n n o > > > > p q q q q r s s s s t ",
"          & * * * * u ; ; ; ; v ' ' ' ' )           ",
"          & ! w x y u / z A / B [ C D E F           ",
"          & 5 G 4 H I 9 J / 9 K c L b [ )           ",
"          & M e N O u P Q Q P R S i T U )           ",
"  V V V V W X X X X Y Z Z Z Z `  . . . ...V V V V +.",
"@.#.#.#.#.$.#.#.#.#.$.%.%.%.%.&.#.#.#.#.$.#.#.#.#.$.",
"@.*.=.-.;.$.>.,.'.'.$.).!.~.{.].>.,.-.'.$.*.=.-.;.$.",
"^.#./.(._.$.:.<.[.}.$.{.|.1.2.3.>.4.5./.$.#./.(._.$.",
"@.#.6.6.#.$.#.7.#.6.$.8.9.0.0.a.#.7.b.6.$.#.6.6.#.$.",
"c.d.d.d.d.e.d.d.d.d.e.f.f.f.f.g.d.d.d.d.e.d.d.d.d.e.",
"          h.i.i.i.i.j.; ; ; ; k.l.l.l.l.m.          ",
"          , n.S o.p.q.r.s.t.u.v.w.M x.4 =           ",
"          , b T [ y.z.8 / A.A.B.4 N ! C.D.          ",
"          , T ' T E.) F.F.G.H.> N * N N =           ",
"  I.I.I.I.J.K.K.K.K.L.> > > > M.N.N.N.N.O.P.P.P.P.Q.",
", ' ' ' ' )         R.; ; ; ; >         & * * * * = ",
", [ S.T.U.V.        - / W.X./ Y.        & ! Z.`. +.+",
", ++@+[ #+$+        - %+W.&+%+*+        & =+-+! ;+>+",
", ,+'+'+)+)         - !+~+~+!+{+        & ]+^+^+/+= ",
", (+(+(+(+_+        - :+:+:+:+<+        & [+[+[+[+}+",
"                                                    "};
