/* XPM */
static char * mini_gimp_xpm[] = {
"24 14 176 2",
"  	c None",
". 	c #888273",
"+ 	c #817A68",
"@ 	c #473E36",
"# 	c #6C6659",
"$ 	c #7F796A",
"% 	c #958C76",
"& 	c #52483A",
"* 	c #56432F",
"= 	c #422E16",
"- 	c #36220C",
"; 	c #2F1E0B",
"> 	c #2A1B0D",
", 	c #342A1E",
"' 	c #3B332A",
") 	c #34302B",
"! 	c #615D50",
"~ 	c #6C6554",
"{ 	c #787265",
"] 	c #82745D",
"^ 	c #462C11",
"/ 	c #40280E",
"( 	c #39240C",
"_ 	c #321F0B",
": 	c #2B1B0B",
"< 	c #241607",
"[ 	c #1E1305",
"} 	c #160E05",
"| 	c #110B05",
"1 	c #322F2A",
"2 	c #686252",
"3 	c #6B6352",
"4 	c #615A49",
"5 	c #3B3831",
"6 	c #726B5E",
"7 	c #523D22",
"8 	c #412C15",
"9 	c #382612",
"0 	c #322311",
"a 	c #2C2012",
"b 	c #281F14",
"c 	c #241E16",
"d 	c #29231C",
"e 	c #383328",
"f 	c #575141",
"g 	c #655E4E",
"h 	c #615A4A",
"i 	c #5B5647",
"j 	c #CDCCCA",
"k 	c #C0BCB2",
"l 	c #807968",
"m 	c #9E9B97",
"n 	c #A2A29F",
"o 	c #807D75",
"p 	c #4F4B3E",
"q 	c #484337",
"r 	c #474336",
"s 	c #4B473A",
"t 	c #514B3E",
"u 	c #554F40",
"v 	c #565041",
"w 	c #4B4840",
"x 	c #4B4A4A",
"y 	c #343433",
"z 	c #BBB9B5",
"A 	c #FFFFFF",
"B 	c #E2E0DB",
"C 	c #EEEEED",
"D 	c #928D81",
"E 	c #645D4D",
"F 	c #4A4538",
"G 	c #443F33",
"H 	c #464237",
"I 	c #4D4A42",
"J 	c #414241",
"K 	c #AAAAA9",
"L 	c #565656",
"M 	c #3A3A36",
"N 	c #B0ACA2",
"O 	c #000000",
"P 	c #DDDAD7",
"Q 	c #E4E4E3",
"R 	c #959186",
"S 	c #625C4B",
"T 	c #524C3E",
"U 	c #443E33",
"V 	c #3C392D",
"W 	c #38352C",
"X 	c #2E2E2D",
"Y 	c #4F4E4D",
"Z 	c #676666",
"` 	c #424242",
" .	c #454544",
"..	c #686459",
"+.	c #857E6C",
"@.	c #847C69",
"#.	c #9C9585",
"$.	c #CECDCB",
"%.	c #676867",
"&.	c #716F6A",
"*.	c #6F6858",
"=.	c #5A5445",
"-.	c #4B4639",
";.	c #413D31",
">.	c #3D382D",
",.	c #2D2C2A",
"'.	c #323131",
").	c #383938",
"!.	c #484848",
"~.	c #605F5F",
"{.	c #67645D",
"].	c #6D6653",
"^.	c #79725E",
"/.	c #7A735F",
"(.	c #7B7461",
"_.	c #797363",
":.	c #6B6454",
"<.	c #575142",
"[.	c #4A4438",
"}.	c #444033",
"|.	c #3E392E",
"1.	c #36332A",
"2.	c #282827",
"3.	c #444444",
"4.	c #626262",
"5.	c #787776",
"6.	c #5A564E",
"7.	c #635C4A",
"8.	c #69614F",
"9.	c #5E5848",
"0.	c #514B3C",
"a.	c #4F4334",
"b.	c #605443",
"c.	c #584C3B",
"d.	c #584E3A",
"e.	c #433C32",
"f.	c #4E4D4A",
"g.	c #5D5951",
"h.	c #433F33",
"i.	c #454134",
"j.	c #423E33",
"k.	c #39362D",
"l.	c #333027",
"m.	c #433D33",
"n.	c #685D4C",
"o.	c #6D5B46",
"p.	c #836C4F",
"q.	c #AB8C65",
"r.	c #A8957D",
"s.	c #9B9B9A",
"t.	c #9D9C9C",
"u.	c #818180",
"v.	c #444344",
"w.	c #5E5E5E",
"x.	c #353432",
"y.	c #2F2E2B",
"z.	c #191815",
"A.	c #201E1A",
"B.	c #35342D",
"C.	c #514D44",
"D.	c #5B584E",
"E.	c #444039",
"F.	c #26241E",
"G.	c #1C1A18",
"H.	c #2F2C2A",
"I.	c #5A5551",
"J.	c #606060",
"K.	c #545454",
"L.	c #646363",
"M.	c #727372",
"N.	c #262726",
"O.	c #1C1C1B",
"P.	c #171716",
"Q.	c #161615",
"R.	c #151514",
"S.	c #181818",
"                                        .       ",
"          +             @             # $       ",
"            % & * = - ; > , ' )     ! ~ {       ",
"            ] ^ / ( _ : < [ } | 1 2 3 4 5       ",
"            6 7 8 9 0 a b c d e f g h i         ",
"            j k l m n o p q r s t u v w         ",
"    x y   z A A B C A A D E v F G H I           ",
"  J K L M N A O P Q O A R S T U V W X           ",
"  Y Z `  ...+.@.#.$.%.&.*.=.-.;.>.,.            ",
"  '.).!.~.{.].^./.(._.:.<.[.}.|.1.2.            ",
"    3.4.5.6.<.7.8.E 9.0.a.b.c.d.e.y             ",
"      f.g.h.i.i.j.k.l.m.n.o.p.q.r.s.t.u.v.w.    ",
"          x.y.z.A.B.C.D.E.F.G.H.I.v.J.  K.L.M.  ",
"                N.O.P.Q.R.S.                    "};
