/* XPM */
static char * fish_xpm[] = {
"18 11 78 1",
" 	c None",
".	c #000000",
"+	c #171E43",
"@	c #06120A",
"#	c #171F40",
"$	c #B358A9",
"%	c #D78A94",
"&	c #EF535D",
"*	c #F94357",
"=	c #F54258",
"-	c #F04056",
";	c #DD374A",
">	c #9D313F",
",	c #762631",
"'	c #F93F54",
")	c #C67E77",
"!	c #FFFFFF",
"~	c #F94156",
"{	c #F7384D",
"]	c #F83D52",
"^	c #FA4358",
"/	c #F94055",
"(	c #DF6781",
"_	c #1E2850",
":	c #B14D98",
"<	c #F83E53",
"[	c #F04B55",
"}	c #F83C51",
"|	c #F73A4F",
"1	c #F83B50",
"2	c #F43B51",
"3	c #DD4976",
"4	c #583159",
"5	c #06120B",
"6	c #282F51",
"7	c #CF446A",
"8	c #F73B50",
"9	c #B83B45",
"0	c #B42C3A",
"a	c #F23A50",
"b	c #F43A50",
"c	c #F63C51",
"d	c #F3364C",
"e	c #F6364B",
"f	c #F7374C",
"g	c #E7454E",
"h	c #A0558E",
"i	c #D52E40",
"j	c #E6364A",
"k	c #732329",
"l	c #1D1410",
"m	c #D53043",
"n	c #F63348",
"o	c #F1364B",
"p	c #F0364C",
"q	c #EC354A",
"r	c #F6374C",
"s	c #EF3347",
"t	c #1F1B13",
"u	c #946CA4",
"v	c #B96269",
"w	c #A72E3D",
"x	c #C32C3E",
"y	c #D43246",
"z	c #E13145",
"A	c #E53246",
"B	c #E03145",
"C	c #DE374D",
"D	c #DE3246",
"E	c #A22B37",
"F	c #4D1F1F",
"G	c #07120A",
"H	c #0C140C",
"I	c #1F1A14",
"J	c #2C3148",
"K	c #0B151F",
"L	c #89837E",
"M	c #1F2019",
"         ..       ",
"        +@@#      ",
"  $%&*=-;>,       ",
" ')!)*~{]~^/(   ._",
":<<)[}'|'/112}3456",
" 78|}901abcd|efg..",
"  hijklm|enopqrst.",
"    uvwxyzABCDEFG.",
"       .HI..   JK.",
"        LM.     ..",
"                  "};
