/* XPM */
static char * mini_win2000_xpm[] = {
"36 34 6 1",
" 	c None",
".	c #000000",
"+	c #FF0000",
"@	c #00FF00",
"#	c #0000FF",
"$	c #FFFF00",
"                                    ",
"                                    ",
"                                    ",
"                                    ",
"                    ........        ",
"                    ........        ",
"                ................    ",
"                ................    ",
"  ..          ......++....@@......  ",
"  ..          ......++....@@......  ",
"  ..  ..  ........++++....@@@@....  ",
"  ..  ..  ........++++....@@@@....  ",
"      ............++++....@@@@....  ",
"      ............++++....@@@@....  ",
"  ++          ....++........@@....  ",
"  ++          ....++........@@....  ",
"  ++  ++  ++++....................  ",
"  ++  ++  ++++....................  ",
"      ++++++++......##....$$......  ",
"      ++++++++......##....$$......  ",
"  ##          ....####....$$$$....  ",
"  ##          ....####....$$$$....  ",
"  ##  ##  ####....####....$$$$....  ",
"  ##  ##  ####....####....$$$$....  ",
"      ########....##........$$....  ",
"      ########....##........$$....  ",
"  ..          ....................  ",
"  ..          ....................  ",
"  ..  ..  ..........        ......  ",
"  ..  ..  ..........        ......  ",
"      ..........                ..  ",
"      ..........                ..  ",
"                                    ",
"                                    "};
