/* XPM */
static char * mini_oo_logo_xpm[] = {
"55 50 254 2",
"  	c None",
". 	c #FFFFFF",
"+ 	c #FEFEFE",
"@ 	c #EBEBEB",
"# 	c #D5D5D5",
"$ 	c #B8B8B8",
"% 	c #D8D8D8",
"& 	c #FBFBFB",
"* 	c #CACACA",
"= 	c #5A5A5A",
"- 	c #202020",
"; 	c #040404",
"> 	c #000000",
", 	c #010101",
"' 	c #1A1A1A",
") 	c #6B6B6B",
"! 	c #AAAAAA",
"~ 	c #939393",
"{ 	c #070707",
"] 	c #0E0E0E",
"^ 	c #565656",
"/ 	c #8B8B8B",
"( 	c #020202",
"_ 	c #414141",
": 	c #929292",
"< 	c #B4B4B4",
"[ 	c #DCDCDC",
"} 	c #F1F1F1",
"| 	c #171717",
"1 	c #B6B6B6",
"2 	c #757575",
"3 	c #2E2E2E",
"4 	c #E2E2E2",
"5 	c #EEEEEE",
"6 	c #0D0D0D",
"7 	c #111111",
"8 	c #DBDBDB",
"9 	c #F3F3F3",
"0 	c #A8A8A8",
"a 	c #505050",
"b 	c #4B4B4B",
"c 	c #4C4C4C",
"d 	c #5C5C5C",
"e 	c #818181",
"f 	c #DDDDDD",
"g 	c #CFCFCF",
"h 	c #030303",
"i 	c #B2B2B2",
"j 	c #C8C8C8",
"k 	c #282828",
"l 	c #606060",
"m 	c #4A4A4A",
"n 	c #636363",
"o 	c #BEE6FE",
"p 	c #A2DBFD",
"q 	c #A1DAFB",
"r 	c #6E7A81",
"s 	c #050505",
"t 	c #010304",
"u 	c #83BADB",
"v 	c #DAF1FE",
"w 	c #79CCFC",
"x 	c #3EB5FB",
"y 	c #3EB4FA",
"z 	c #1D5677",
"A 	c #020508",
"B 	c #040C11",
"C 	c #0A1E2A",
"D 	c #B3E2FD",
"E 	c #23668D",
"F 	c #03090D",
"G 	c #16415A",
"H 	c #256D97",
"I 	c #2F8ABF",
"J 	c #369DD9",
"K 	c #3BAEF1",
"L 	c #3DB2F7",
"M 	c #2C7FB1",
"N 	c #0A1C27",
"O 	c #17445E",
"P 	c #2A7BAA",
"Q 	c #010202",
"R 	c #17455F",
"S 	c #3AAAEC",
"T 	c #3CAFF2",
"U 	c #2875A2",
"V 	c #17435D",
"W 	c #164059",
"X 	c #2F89BE",
"Y 	c #0D2533",
"Z 	c #1A4B69",
"` 	c #3DB3F8",
" .	c #308BC2",
"..	c #0F2B3C",
"+.	c #7FCFFD",
"@.	c #46B9FC",
"#.	c #46B9FB",
"$.	c #102D3E",
"%.	c #030608",
"&.	c #358ABA",
"*.	c #45B9FB",
"=.	c #3B9ED8",
"-.	c #328ABD",
";.	c #1C5373",
">.	c #1C5271",
",.	c #1F597B",
"'.	c #3FA9E7",
").	c #B6E4FE",
"!.	c #86D3FE",
"~.	c #50BFFE",
"{.	c #4FBDFB",
"].	c #245673",
"^.	c #3B8DBC",
"/.	c #4BB2ED",
"(.	c #3989B6",
"_.	c #163445",
":.	c #132D3C",
"<.	c #010203",
"[.	c #0C1D26",
"}.	c #BAE6FF",
"|.	c #4DB8F4",
"1.	c #32789F",
"2.	c #071016",
"3.	c #0E212C",
"4.	c #1B4056",
"5.	c #3783AE",
"6.	c #4AB2EC",
"7.	c #96D9FD",
"8.	c #68C8FB",
"9.	c #66C5F8",
"0.	c #337295",
"a.	c #09151C",
"b.	c #040708",
"c.	c #29404B",
"d.	c #4D89A8",
"e.	c #66C4F7",
"f.	c #C3E9FE",
"g.	c #ACE1FA",
"h.	c #88D4F8",
"i.	c #86D1F5",
"j.	c #355361",
"k.	c #030506",
"l.	c #324D5B",
"m.	c #72B2D0",
"n.	c #D0EEFC",
"o.	c #86D2F5",
"p.	c #395968",
"q.	c #070A0C",
"r.	c #476F82",
"s.	c #7BBFE0",
"t.	c #87D3F7",
"u.	c #385867",
"v.	c #162329",
"w.	c #73B3D2",
"x.	c #5B8EA6",
"y.	c #000001",
"z.	c #1D2C34",
"A.	c #7EC5E6",
"B.	c #18262D",
"C.	c #7FC6E8",
"D.	c #84CEF1",
"E.	c #070C0E",
"F.	c #111B1F",
"G.	c #7ABEDE",
"H.	c #598BA3",
"I.	c #050809",
"J.	c #6CA8C5",
"K.	c #1F3139",
"L.	c #395867",
"M.	c #456B7D",
"N.	c #21333C",
"O.	c #20313A",
"P.	c #2C4550",
"Q.	c #5C8FA7",
"R.	c #6299B3",
"S.	c #162227",
"T.	c #040608",
"U.	c #78BADA",
"V.	c #80C7E9",
"W.	c #416677",
"X.	c #0A1012",
"Y.	c #406374",
"Z.	c #81CAEC",
"`.	c #21343C",
" +	c #030405",
".+	c #7CC1E2",
"++	c #81C9EB",
"@+	c #21343D",
"#+	c #000101",
"$+	c #1F3038",
"%+	c #040607",
"&+	c #121D22",
"*+	c #18262C",
"=+	c #18252C",
"-+	c #17252B",
";+	c #090D10",
">+	c #73B3D1",
",+	c #AAE0FB",
"'+	c #84D3F9",
")+	c #7FCBEF",
"!+	c #253A44",
"~+	c #070C0F",
"{+	c #325364",
"]+	c #48758B",
"^+	c #5387A1",
"/+	c #6AAACA",
"(+	c #7CC7EB",
"_+	c #83D2F8",
":+	c #80CCF1",
"<+	c #5C94B0",
"[+	c #284351",
"}+	c #77BEE1",
"|+	c #CEEDFD",
"1+	c #9BDCFF",
"2+	c #6FCCFF",
"3+	c #294C5F",
"4+	c #2D5368",
"5+	c #64B8E6",
"6+	c #62B4E1",
"7+	c #549AC0",
"8+	c #C6EBFF",
"9+	c #5398BE",
"0+	c #335F77",
"a+	c #6FCBFE",
"b+	c #8CD5FE",
"c+	c #59C2FD",
"d+	c #1E3D4E",
"e+	c #265B7A",
"f+	c #59C1FC",
"g+	c #5CC3FD",
"h+	c #61C5FE",
"i+	c #C1E8FF",
"j+	c #37A1DF",
"k+	c #010406",
"l+	c #1A4B68",
"m+	c #3DB4F9",
"n+	c #1F5A7D",
"o+	c #1A4D6B",
"p+	c #3DB3F9",
"q+	c #0B1F2B",
"r+	c #3DB1F5",
"s+	c #78C7F6",
"t+	c #040B0F",
"u+	c #061017",
"v+	c #3396D0",
"w+	c #6DA9CD",
"x+	c #246A93",
"y+	c #638DA5",
"z+	c #0A1D29",
"A+	c #3CAFF3",
"B+	c #78CAF9",
"C+	c #98D7FD",
"D+	c #6AC6FC",
"E+	c #C5E9FE",
". . . . . . . . . . . . . . . . . . . . . . . . . . . . . . . . . . . . . . . . . . . + @ # $ % & . . . . . . ",
". . . . . . . . . . . . . . . . . . . . . . . . . . . . . . . . . . . . . . . . . * = - ; > > , ' ) ! & . . . ",
". . . . . . . . . . . . . . . . . . . . . . . . . . . . . . . . . . . . . . . + ~ { > > > > > > > ] ^ % . . . ",
". . . . . . . . . . . . . . . . . . . . . . . . . . . . . . . . . . . . . . . / > > > > ( _ : < [ } . . . . . ",
". . . . . . . . . . . . . . . . . . . . . . . . . . . . . . . . . . . . . . @ ] > > > | 1 + . . . . . . . . . ",
". . . . . . . . . . . . . . . . . . . . . . . . . . . . . . . . . . . . . . 2 > > > 3 4 . . . . . . . . . . . ",
". . . . . . . . . . . . . . . . . . . . . . . . . . . . . . . . . . . . . 5 6 > > 7 8 . . . . . . . . . . . . ",
". . . . . . . . . . . . . . . . . . . . . . . . . . . . 9 0 a b c d e f . g > > h i . . . . . . . . . . . . . ",
". . . . . . . . . . . . . . . . . . . . . . . . . . . j k > > > > > > ( l m > > n . . . . . . . . . . . . . . ",
". . . o p p p p p p p p p p p p p p p p p p p p p q r s > > > > > > > > > > > t u p p p p p p p p p p v . . . ",
". . . w x x x x x x x x x x x x x x x x x x x x y z > > > > > > A B > > > > > C x x x x x x x x x x x D . . . ",
". . . w x x x x x x x x x x x x x x x x x x x x E > > F G H I J K L M N > > > O x x x x x x x x x x x D . . . ",
". . . w x x x x x x x x x x x x x x x x x x x P Q > R S x x x x x x x T U V W X x x x x x x x x x x x D . . . ",
". . . w x x x x x x x x x x x x x x x x x x y Y > Z ` x x x x x x x x x x x x x x x x x x x x x x x x D . . . ",
". . . w x x x x x x x x x x x x x x x x x x  .> ..L x x x x x x x x x x x x x x x x x x x x x x x x x D . . . ",
". . . +.@.@.@.@.@.@.@.@.@.@.@.@.@.@.@.@.@.#.$.%.&.@.@.@.@.*.@.@.@.@.@.@.@.=.-.;.>.,.'.@.@.@.@.@.@.@.@.).. . . ",
". . . !.~.~.~.~.~.~.~.~.~.~.~.~.~.~.~.~.~.{.].^.~.~.~.~.~.~.~.~./.(.]._.:.<.> > > > [./.~.~.~.~.~.~.~.}.. . . ",
". . . !.~.~.~.~.~.~.~.~.~.~.~.~.~.~.~.~.~.~.~.~.~.~.~.~.~.|.1._.2.> > > > > > > 3.4.5.6.~.~.~.~.~.~.~.}.. . . ",
". . . 7.8.8.8.8.8.8.8.8.8.8.8.8.8.8.8.8.8.8.8.8.8.8.8.9.0.a.> > > > > > > b.c.d.e.8.8.8.8.8.8.8.8.8.8.f.. . . ",
". . . g.h.h.h.h.h.h.h.h.h.h.h.h.h.h.h.h.h.h.h.h.h.h.i.j.> > > > > > > k.l.m.h.h.h.h.h.h.h.h.h.h.h.h.h.n.. . . ",
". . . g.h.h.h.h.h.h.h.h.h.h.h.h.h.h.h.h.h.h.h.h.h.o.p.> > > > > > q.r.s.h.h.h.h.h.h.h.h.h.h.h.h.h.h.h.n.. . . ",
". . . g.h.h.h.h.h.h.h.h.h.h.h.h.h.h.h.h.h.h.h.h.t.u.> > > > > > v.w.h.h.h.h.h.h.h.h.h.h.h.h.h.h.h.h.h.n.. . . ",
". . . g.h.h.h.h.h.h.h.h.h.h.h.h.h.h.h.h.h.h.h.h.x.y.> > > > > z.A.h.h.h.h.h.h.h.h.h.h.h.h.h.h.h.h.h.h.n.. . . ",
". . . g.h.h.h.h.h.h.h.h.h.h.h.h.h.h.h.h.h.h.h.h.j.> > > > > B.C.h.h.h.h.h.h.h.h.h.h.h.h.h.h.h.h.h.h.h.n.. . . ",
". . . g.h.h.h.h.h.h.h.h.h.h.h.h.h.h.h.h.h.h.h.D.E.> > > > F.G.h.h.h.h.h.h.h.h.h.h.h.h.h.h.h.h.h.h.h.h.n.. . . ",
". . . g.h.h.h.h.h.h.h.h.h.h.h.h.h.h.h.h.h.h.h.H., > > > I.J.h.h.h.h.h.h.h.h.h.h.h.h.h.h.h.h.h.h.h.h.h.n.. . . ",
". . . g.h.h.h.h.h.h.h.h.h.h.h.h.h.h.h.h.h.h.h.K.> > > > L.h.h.h.h.h.h.h.h.h.h.h.h.h.h.h.h.h.h.h.h.h.h.n.. . . ",
". . . g.h.h.h.h.h.h.h.h.h.s.M.N.O.O.O.O.P.Q.R.S.> > > T.U.h.h.h.h.h.h.h.h.h.h.h.h.h.h.h.h.h.h.h.h.h.h.n.. . . ",
". . . g.h.h.h.h.h.h.h.V.W.X.> > > > > > > > > > > > > Y.h.h.h.h.h.h.h.h.h.h.h.h.h.h.h.h.h.h.h.h.h.h.h.n.. . . ",
". . . g.h.h.h.h.h.h.Z.O.> > > > > > > > > > > > > > > m.h.h.h.h.h.h.h.h.h.h.h.h.h.h.h.h.h.h.h.h.h.h.h.n.. . . ",
". . . g.h.h.h.h.h.A.`.> > > > > > > > > > > > Q  +> > .+h.h.h.h.h.h.h.h.h.h.h.h.h.h.h.h.h.h.h.h.h.h.h.n.. . . ",
". . . g.h.h.h.h.++@+> > > > #+> > > > > > > > > > > > w.h.h.h.h.h.h.h.h.h.h.h.h.h.h.h.h.h.h.h.h.h.h.h.n.. . . ",
". . . g.h.h.h.++$+> > > > > > > > %+&+*+=+-+;+> > > > >+h.h.h.h.h.h.h.h.h.h.h.h.h.h.h.h.h.h.h.h.h.h.h.n.. . . ",
". . . ,+'+'+)+!+> > > > ~+{+]+^+/+(+_+'+'+'+:+<+[+Q <.}+'+'+'+'+'+'+'+'+'+'+'+'+'+'+'+'+'+'+'+'+'+'+'+|+. . . ",
". . . 1+2+2+3+> > > #+4+5+2+2+2+2+2+2+2+2+2+2+2+2+6+7+2+2+2+2+2+2+2+2+2+2+2+2+2+2+2+2+2+2+2+2+2+2+2+2+8+. . . ",
". . . 1+2+9+#+> > #+0+a+2+2+2+2+2+2+2+2+2+2+2+2+2+2+2+2+2+2+2+2+2+2+2+2+2+2+2+2+2+2+2+2+2+2+2+2+2+2+2+8+. . . ",
". . . b+c+d+> > > e+f+c+c+c+c+g+h+h+h+h+h+h+h+h+h+h+h+h+h+h+h+h+h+h+h+h+h+h+h+h+h+h+h+h+h+h+h+h+h+h+h+i+. . . ",
". . . w j+k+> > l+m+x x x x x x x x x x x x x x x x x x x x x x x x x x x x x x x x x x x x x x x x x D . . . ",
". . . w n+> > o+p+x x x x x x x x x x x x x x x x x x x x x x x x x x x x x x x x x x x x x x x x x x D . . . ",
". . . w ..> q+r+x x x x x x x x x x x x x x x x x x x x x x x x x x x x x x x x x x x x x x x x x x x D . . . ",
". . . s+t+u+v+x x x x x x x x x x x x x x x x x x x x x x x x x x x x x x x x x x x x x x x x x x x x D . . . ",
". . . w+y.x+x x x x x x x x x x x x x x x x x x x x x x x x x x x x x x x x x x x x x x x x x x x x x D . . . ",
". . . y+z+A+x x x x x x x x x x x x x x x x x x x x x x x x x x x x x x x x x x x x x x x x x x x x x D . . . ",
". . . B+L x x x x x x x x x x x x x x x x x x x x x x x x x x x x x x x x x x x x x x x x x x x x x x D . . . ",
". . . w x x x x x x x x x x x x x x x x x x x x x x x x x x x x x x x x x x x x x x x x x x x x x x x D . . . ",
". . . C+D+D+D+D+D+D+D+D+D+D+D+D+D+D+D+D+D+D+D+D+D+D+D+D+D+D+D+D+D+D+D+D+D+D+D+D+D+D+D+D+D+D+D+D+D+D+D+E+. . . ",
". . . . . . . . . . . . . . . . . . . . . . . . . . . . . . . . . . . . . . . . . . . . . . . . . . . . . . . ",
". . . . . . . . . . . . . . . . . . . . . . . . . . . . . . . . . . . . . . . . . . . . . . . . . . . . . . . ",
". . . . . . . . . . . . . . . . . . . . . . . . . . . . . . . . . . . . . . . . . . . . . . . . . . . . . . . ",
". . . . . . . . . . . . . . . . . . . . . . . . . . . . . . . . . . . . . . . . . . . . . . . . . . . . . . . "};
