/* XPM */
static char * mini_xemacs_xpm[] = {
"24 24 55 1",
" 	c None",
".	c #F7F7F7",
"+	c #EEEEEE",
"@	c #A0A0A0",
"#	c #DEDEDE",
"$	c #909090",
"%	c #B1B1B1",
"&	c #8A8A8A",
"*	c #FFFFFF",
"=	c #C6C6C6",
"-	c #B5B5B5",
";	c #B9B9B9",
">	c #E6E6E6",
",	c #BFBFBF",
"'	c #D0D0D0",
")	c #FF4040",
"!	c #FF0000",
"~	c #A02121",
"{	c #FF8080",
"]	c #D01010",
"^	c #CCCCCC",
"/	c #F7B7B7",
"(	c #8C4C4C",
"_	c #ADADAD",
":	c #713232",
"<	c #B3B3B3",
"[	c #929292",
"}	c #D6D656",
"|	c #A0A061",
"1	c #FFFF80",
"2	c #EAEAAB",
"3	c #FFFF00",
"4	c #DADA5A",
"5	c #EEEE2F",
"6	c #DADA9A",
"7	c #B5B536",
"8	c #B9B93A",
"9	c #DEDE5E",
"0	c #FFFFBF",
"a	c #787878",
"b	c #8C8C8C",
"c	c #D6D6D6",
"d	c #A7A7A7",
"e	c #DADADA",
"f	c #A06161",
"g	c #888888",
"h	c #D8D8D8",
"i	c #C8C8C8",
"j	c #CA8A8A",
"k	c #E42525",
"l	c #E4E4E4",
"m	c #D49494",
"n	c #E4A4A4",
"o	c #D2D2D2",
"p	c #7A7A7A",
".++++++++++++++++++++++@",
"+######################$",
"+####@%%%%%%%%%%%%%%%&#$",
"+####@***************%=$",
"+####@***+#%--#;#****%=$",
"+>++,@***'*****'*****%=$",
"+>)!~@{!]'{!!!!~%^+**%=$",
"+#/!!@!!(_{!!~~:_<-;+%=$",
"+#>)!!!][}{!!|1233331%=$",
"+##/!!!(_}{!!!!~}4531%=$",
"+##{!!!~_6{!!~~:}7890%=$",
"+#+!!~!!a={!!bcc_c***%=$",
"+#{!]d)!~_{!!!!~ce#**%=$",
"+,~~:_f~~af~~~~:g@;;h%=$",
"+##=__%*___*_gg_g@;;h%=$",
"+#####%*****hi;-#^+**%=$",
"+#####%*jkl**********%=$",
"+#####%*k!m;^i;^*****%=$",
"+#####%*ln***+;ic;^**%=$",
"+#####%**************%=$",
"+#####%**********-;#+%=$",
"+#####&%%%%%%%%%%%%%%&=$",
"+######===============o$",
"@$$$$$$$$$$$$$$$$$$$$$$p"};
