/* XPM */
static char * mini_music_xpm[] = {
"20 15 2 1",
" 	c None",
".	c #000000",
"                    ",
"      ..            ",
"      .........     ",
"      ...........   ",
"      ..       ..   ",
"      ..       ..   ",
"      ..       ..   ",
"      ..       ..   ",
"   .....       ..   ",
"  ......       ..   ",
"  ......    .....   ",
"   ....    ......   ",
"           ......   ",
"            ....    ",
"                    "};
