/* XPM */
static char * mini_phoenix_xpm[] = {
"41 26 384 2",
"  	c None",
". 	c #493E1A",
"+ 	c #937112",
"@ 	c #A28110",
"# 	c #422E21",
"$ 	c #885918",
"% 	c #C39C0D",
"& 	c #AA860F",
"* 	c #662B20",
"= 	c #A22023",
"- 	c #A62224",
"; 	c #882123",
"> 	c #2C2C2B",
", 	c #5E391D",
"' 	c #85531A",
") 	c #B58B0C",
"! 	c #9F5F13",
"~ 	c #792627",
"{ 	c #591A19",
"] 	c #A11E21",
"^ 	c #B12125",
"/ 	c #5C4B22",
"( 	c #917414",
"_ 	c #876D11",
": 	c #8D2C1D",
"< 	c #C42026",
"[ 	c #BD2024",
"} 	c #9E1D20",
"| 	c #C62127",
"1 	c #B62025",
"2 	c #41342E",
"3 	c #8C2122",
"4 	c #C52126",
"5 	c #CA2027",
"6 	c #CA2127",
"7 	c #992326",
"8 	c #2C2620",
"9 	c #5B2F1D",
"0 	c #A14D23",
"a 	c #752122",
"b 	c #952225",
"c 	c #BF2026",
"d 	c #C4782D",
"e 	c #782725",
"f 	c #7C3221",
"g 	c #6B1E1F",
"h 	c #BB2126",
"i 	c #7B2526",
"j 	c #C0762C",
"k 	c #723534",
"l 	c #551D1B",
"m 	c #9A2225",
"n 	c #862023",
"o 	c #3C2221",
"p 	c #4A1D1A",
"q 	c #302523",
"r 	c #89201F",
"s 	c #932020",
"t 	c #6E3C23",
"u 	c #AB2225",
"v 	c #7D2223",
"w 	c #7D2120",
"x 	c #7B2322",
"y 	c #882221",
"z 	c #812727",
"A 	c #281C1B",
"B 	c #5F2222",
"C 	c #D22223",
"D 	c #A82323",
"E 	c #8F4724",
"F 	c #C72127",
"G 	c #5F2223",
"H 	c #772726",
"I 	c #9C2424",
"J 	c #DE2223",
"K 	c #772221",
"L 	c #602524",
"M 	c #782021",
"N 	c #7D2023",
"O 	c #A02020",
"P 	c #EC2224",
"Q 	c #D72223",
"R 	c #5B2826",
"S 	c #9F2225",
"T 	c #BB2025",
"U 	c #622726",
"V 	c #D52223",
"W 	c #ED2224",
"X 	c #C52122",
"Y 	c #7B2021",
"Z 	c #6C2525",
"` 	c #2D2625",
" .	c #662221",
"..	c #372726",
"+.	c #991F22",
"@.	c #981D21",
"#.	c #CB2121",
"$.	c #EE2224",
"%.	c #C12222",
"&.	c #752626",
"*.	c #55211E",
"=.	c #771E1C",
"-.	c #891F1D",
";.	c #7B211F",
">.	c #542827",
",.	c #9E2125",
"'.	c #BF2025",
").	c #C32026",
"!.	c #BB1F24",
"~.	c #6A2320",
"{.	c #83201F",
"].	c #892120",
"^.	c #892221",
"/.	c #942322",
"(.	c #DA2122",
"_.	c #9D1E20",
":.	c #A32023",
"<.	c #602120",
"[.	c #912023",
"}.	c #7C1F20",
"|.	c #B62125",
"1.	c #C52026",
"2.	c #9E1F1F",
"3.	c #D82122",
"4.	c #C92121",
"5.	c #951F1F",
"6.	c #8B1E1F",
"7.	c #A61F23",
"8.	c #B31F24",
"9.	c #B51E23",
"0.	c #B21F24",
"a.	c #8C1E1E",
"b.	c #C92027",
"c.	c #AF1F23",
"d.	c #77211B",
"e.	c #AA2522",
"f.	c #C62026",
"g.	c #932123",
"h.	c #721F1E",
"i.	c #931F1F",
"j.	c #AA1F22",
"k.	c #AD1F22",
"l.	c #A61F21",
"m.	c #A01F20",
"n.	c #B62120",
"o.	c #DB2123",
"p.	c #BF2126",
"q.	c #7C2021",
"r.	c #971E21",
"s.	c #931F22",
"t.	c #C52127",
"u.	c #741B1A",
"v.	c #C32126",
"w.	c #A91F22",
"x.	c #A51E1F",
"y.	c #A41F1F",
"z.	c #A51F21",
"A.	c #BC2025",
"B.	c #C92127",
"C.	c #B32024",
"D.	c #9E1F22",
"E.	c #C82127",
"F.	c #AD1F23",
"G.	c #A62722",
"H.	c #AA481E",
"I.	c #A42821",
"J.	c #B62024",
"K.	c #A41F21",
"L.	c #A71F1F",
"M.	c #AA2020",
"N.	c #891E1D",
"O.	c #C02026",
"P.	c #841C1C",
"Q.	c #9A1E20",
"R.	c #322625",
"S.	c #762224",
"T.	c #BC2326",
"U.	c #A11D1C",
"V.	c #751B1A",
"W.	c #891D1E",
"X.	c #911E1E",
"Y.	c #9D1F21",
"Z.	c #9A1D20",
"`.	c #841C1D",
" +	c #AF2023",
".+	c #751C1B",
"++	c #BA2025",
"@+	c #B12124",
"#+	c #CE5521",
"$+	c #BE4E1F",
"%+	c #B22224",
"&+	c #C22126",
"*+	c #911E1F",
"=+	c #A92023",
"-+	c #731A19",
";+	c #A32022",
">+	c #851C1C",
",+	c #971E1D",
"'+	c #7E2022",
")+	c #281B1A",
"!+	c #881E20",
"~+	c #AE1F1F",
"{+	c #A4201F",
"]+	c #721C1A",
"^+	c #C42221",
"/+	c #691918",
"(+	c #8C1D1C",
"_+	c #971E1F",
":+	c #A81F1F",
"<+	c #9B2020",
"[+	c #90251E",
"}+	c #D65B20",
"|+	c #E96321",
"1+	c #A23120",
"2+	c #9A1F1E",
"3+	c #AE2023",
"4+	c #6C1B18",
"5+	c #A61C1C",
"6+	c #7F1E1D",
"7+	c #B31E1E",
"8+	c #A21F1F",
"9+	c #A82024",
"0+	c #A71F22",
"a+	c #8B1E1D",
"b+	c #AD1F1F",
"c+	c #A51F22",
"d+	c #B82321",
"e+	c #981C1E",
"f+	c #AD2023",
"g+	c #CB2122",
"h+	c #A91F20",
"i+	c #9B1F20",
"j+	c #CF2122",
"k+	c #961E1F",
"l+	c #8C2E1A",
"m+	c #EE6622",
"n+	c #F26722",
"o+	c #AD451E",
"p+	c #9A1F1F",
"q+	c #9C1F21",
"r+	c #9A1D1E",
"s+	c #A61F1F",
"t+	c #A72022",
"u+	c #C92021",
"v+	c #861E1D",
"w+	c #C22026",
"x+	c #B02024",
"y+	c #801E1F",
"z+	c #AA1F23",
"A+	c #851D1B",
"B+	c #B5201F",
"C+	c #9A1F21",
"D+	c #811C1D",
"E+	c #A82022",
"F+	c #D62122",
"G+	c #E32223",
"H+	c #981D1C",
"I+	c #DF2223",
"J+	c #D72122",
"K+	c #951D1C",
"L+	c #B82C20",
"M+	c #E06020",
"N+	c #C55120",
"O+	c #C41F20",
"P+	c #A11F20",
"Q+	c #851D1C",
"R+	c #9F1F21",
"S+	c #B01F1F",
"T+	c #6C1A18",
"U+	c #851C1E",
"V+	c #A12023",
"W+	c #871F1D",
"X+	c #971D1C",
"Y+	c #931E1F",
"Z+	c #881D1D",
"`+	c #921D1F",
" @	c #C12026",
".@	c #7B1B1C",
"+@	c #C32121",
"@@	c #E82223",
"#@	c #B61E1E",
"$@	c #E52324",
"%@	c #93271C",
"&@	c #C85021",
"*@	c #D42021",
"=@	c #801E1C",
"-@	c #BE2025",
";@	c #9C1E20",
">@	c #761B1B",
",@	c #991F20",
"'@	c #651A18",
")@	c #B31F1F",
"!@	c #AA2024",
"~@	c #6E2122",
"{@	c #C72027",
"]@	c #771B1A",
"^@	c #901E1E",
"/@	c #831C1B",
"(@	c #8D1E1F",
"_@	c #B72125",
":@	c #BA1F1F",
"<@	c #BD211F",
"[@	c #7E201A",
"}@	c #C52121",
"|@	c #E12223",
"1@	c #AC301E",
"2@	c #D85C20",
"3@	c #B03E1E",
"4@	c #E82224",
"5@	c #D32022",
"6@	c #891D1B",
"7@	c #B92025",
"8@	c #881C1B",
"9@	c #7F1D1C",
"0@	c #9B1F1E",
"a@	c #AC1E1E",
"b@	c #7A2022",
"c@	c #A61F22",
"d@	c #801C1A",
"e@	c #B92020",
"f@	c #9F2022",
"g@	c #B4201F",
"h@	c #C52420",
"i@	c #A8461D",
"j@	c #702219",
"k@	c #A02B1D",
"l@	c #B6271F",
"m@	c #D42122",
"n@	c #891E1E",
"o@	c #971E1E",
"p@	c #C02121",
"q@	c #851D1E",
"r@	c #AB1F1E",
"s@	c #B52020",
"t@	c #B52024",
"u@	c #981E20",
"v@	c #A41F22",
"w@	c #861D1D",
"x@	c #A01E21",
"y@	c #C24C1F",
"z@	c #A3301E",
"A@	c #BC2120",
"B@	c #E72224",
"C@	c #E92224",
"D@	c #C12020",
"E@	c #881C1D",
"F@	c #811A1C",
"G@	c #8A1E1D",
"H@	c #B1201F",
"I@	c #A31F21",
"J@	c #AD2125",
"K@	c #971F22",
"L@	c #DC2122",
"M@	c #B32A1F",
"N@	c #8F321C",
"O@	c #DF2123",
"P@	c #931C1B",
"Q@	c #8F1D1F",
"R@	c #A91E22",
"S@	c #BA2226",
"T@	c #C52027",
"U@	c #C82027",
"V@	c #841B1D",
"W@	c #861E1E",
"X@	c #AC2023",
"Y@	c #9D2124",
"Z@	c #602324",
"`@	c #882224",
" #	c #B62226",
".#	c #A51E21",
"+#	c #8B2123",
"@#	c #7A2325",
"##	c #6C2524",
"$#	c #AD2222",
"%#	c #B51F1F",
"&#	c #C82121",
"*#	c #EA2224",
"=#	c #C42122",
"-#	c #772928",
";#	c #811E20",
">#	c #812325",
",#	c #A21C20",
"'#	c #882023",
")#	c #632021",
"                                                                                  ",
"                      . + @                                                       ",
"                        # $ % & * = - ;                                           ",
"                        > , ' ) ! ~ { ] ^                                         ",
"                          / ( _ : < [ } | 1                                       ",
"          2                     3 4 5 6 5 5 7                         8           ",
"          9 0                     a b c 5 5 c                       d             ",
"          e f                         g h 5 5 i                     j             ",
"          k   l                         m 5 6 n               o   p               ",
"        q   r s   t                     u 6 6 v               w x y z   A         ",
"        B   C D   E                     1 6 F G                 H I J K L         ",
"      M N O P Q R                     S 5 6 T                   U V W X Y Z   `   ",
"   ...+.@.#.$.$.%.&.      *.=.-.;.>.,.'.).5 !.      ~.{.].x ^./.C W W (._.:.  <.  ",
"  [.}.|.1.2.3.W P 4.5.6.7.8.9.0.a.] b.c.d.e.f.g.h.i.j.k.l.m.n.o.W W o.2.).p.q.r.  ",
"  s.t.u.v.w.i.x.y.z.A.6 5 5 B.C.D.E.F.T G.H.I.E.F E.5 6 6 B.J.K.L.M.N.'.O.P.B.Q.  ",
"R.S.T.U.V.W.X.Y.E.5 6 5 6 6 Z.`.). +.+++@+#+$+%+&+*+F 6 5 5 6 6 ).=+-+;+>+,+6 '+)+",
"  !+t.~+{+]+^+/+T 6 5 5 6 4 (+_+O.:+<+Z.[+}+|+1+8.2+3+6 6 5 5 6 8.4+5+6+7+8+b.6.  ",
"  9+0+a+b+c+d+e+f+B.5 5 6 F.g+h+i+j+L.k+l+m+n+o+p+3.K.6 6 5 5 1.q+r+s+t+u+v+w+x+  ",
"  y+z+A+B+C+k+D+E.5 6 5 6 E+F+G+H+I+J+K+L+M+n+N+O+P P+5 6 6 5 5 w+Q+R+i.S+T+< U+  ",
"  V+6 W+X+.+Y+Z+`+ @B.5  @.@+@@@#@$@$.F+%@}+n+&@*@(.=@F.6 5 6 -@;@>@,@'@)@Y+5 !@  ",
"  ~@{@]@j+^@z+,+/@(@_@6 B.N.:@<@[@}@W W |@1@2@3@4@5@6@7@5 B.t+6+8@9@++0@a@6.E.b@  ",
"    r.c@u+d@w.Y.e@i+1.5 6 f@g@h@i@j@3.W W 4@k@l@$.m@n@6 6 5 v.o@p@z.q@r@s@t@V+    ",
"      z+;@:+u@{@v@w@] 6 6 x@U.m@y@z@A@B@W $.C@C@W D@E@6 6 1.F@G@c@4 5.H@I@J@      ",
"        K@z+9@c+6 5 6 B.| p.Z+L@M@N@O@$.W $.W W 4@P@Q@R@S@T@U@6 U@V@W@X@Y@        ",
"          Z@`@z+ #.#+#@#      ##$#%#&#*#C@*#4@=#-#          ;#>#Z.,#'#)#          ",
"                                                                                  "};
