/* XPM */
static char * mini_dia_xpm[] = {
"26 28 247 2",
"  	c #FFFFFF",
". 	c #FDFDFD",
"+ 	c #BCBCBC",
"@ 	c #FCFCFC",
"# 	c #FEFEFE",
"$ 	c #BEBEBE",
"% 	c #BBBBBB",
"& 	c #B9B9B9",
"* 	c #B7B7B7",
"= 	c #4B4B4B",
"- 	c #057405",
"; 	c #057D05",
"> 	c #055305",
", 	c #A1A1A1",
"' 	c #9E9E9E",
") 	c #F6F6F6",
"! 	c #EFEFEF",
"~ 	c #E8E8E8",
"{ 	c #484848",
"] 	c #00EB00",
"^ 	c #00FF00",
"/ 	c #00A500",
"( 	c #D5D5D5",
"_ 	c #E1E1E1",
": 	c #414141",
"< 	c #D4D4D4",
"[ 	c #E7E7E7",
"} 	c #C1C1C1",
"| 	c #3A3A3A",
"1 	c #D2D2D2",
"2 	c #E3E3E3",
"3 	c #CCCCCC",
"4 	c #B6B6B6",
"5 	c #525252",
"6 	c #445A44",
"7 	c #4B624B",
"8 	c #556C55",
"9 	c #5D6C5D",
"0 	c #E0E0E0",
"a 	c #CBCBCB",
"b 	c #B5B5B5",
"c 	c #7E7E7E",
"d 	c #ACACAC",
"e 	c #242424",
"f 	c #C0C0C0",
"g 	c #E9E9E9",
"h 	c #BDBDBD",
"i 	c #E4E4E4",
"j 	c #858585",
"k 	c #767676",
"l 	c #535353",
"m 	c #717171",
"n 	c #0B0B0B",
"o 	c #797979",
"p 	c #949494",
"q 	c #9C9C9C",
"r 	c #9F9F9F",
"s 	c #A0A0A0",
"t 	c #777777",
"u 	c #A4A4A4",
"v 	c #BABABA",
"w 	c #4C4C4C",
"x 	c #454545",
"y 	c #313131",
"z 	c #434343",
"A 	c #070707",
"B 	c #4F4F4F",
"C 	c #515151",
"D 	c #3D3D3D",
"E 	c #545454",
"F 	c #393939",
"G 	c #2E2E2E",
"H 	c #5A5A5A",
"I 	c #C6C6C6",
"J 	c #E2E2E2",
"K 	c #C9C9C9",
"L 	c #919191",
"M 	c #141414",
"N 	c #E5E5E5",
"O 	c #E6E6E6",
"P 	c #ECCBB5",
"Q 	c #B1907B",
"R 	c #D8D8D8",
"S 	c #8A8A8A",
"T 	c #1C1C1C",
"U 	c #161616",
"V 	c #D6D6D6",
"W 	c #DDDDDD",
"X 	c #DEDEDE",
"Y 	c #DBDBDB",
"Z 	c #F48D49",
"` 	c #EA833F",
" .	c #DADADA",
"..	c #DCDCDC",
"+.	c #1F1F1F",
"@.	c #050505",
"#.	c #464646",
"$.	c #A6A6A6",
"%.	c #AAAAAA",
"&.	c #A3A3A3",
"*.	c #9A9A9A",
"=.	c #0F0F0F",
"-.	c #929292",
";.	c #A7A7A7",
">.	c #A5A5A5",
",.	c #A2A2A2",
"'.	c #B7967F",
").	c #FB741B",
"!.	c #BB9A83",
"~.	c #9D9D9D",
"{.	c #9B9B9B",
"].	c #727272",
"^.	c #0A0A0A",
"/.	c #040404",
"(.	c #444444",
"_.	c #ECECEC",
":.	c #D9D9D9",
"<.	c #151515",
"[.	c #F18A45",
"}.	c #F19557",
"|.	c #E38648",
"1.	c #F58E49",
"2.	c #C4C4C4",
"3.	c #C5C5C5",
"4.	c #282828",
"5.	c #000000",
"6.	c #F3F3F3",
"7.	c #EAEAEA",
"8.	c #D1D1D1",
"9.	c #DBB9A2",
"0.	c #FA7319",
"a.	c #E0C6B4",
"b.	c #AD9280",
"c.	c #FC761C",
"d.	c #EBC9B2",
"e.	c #C7C7C7",
"f.	c #AFAFAF",
"g.	c #606060",
"h.	c #010101",
"i.	c #F7F7F7",
"j.	c #EEEEEE",
"k.	c #B3B3B3",
"l.	c #B56B3A",
"m.	c #B9642C",
"n.	c #808080",
"o.	c #BE6930",
"p.	c #BC7241",
"q.	c #ADADAD",
"r.	c #787878",
"s.	c #6D6D6D",
"t.	c #F9F9F9",
"u.	c #F0F0F0",
"v.	c #2B2B2B",
"w.	c #303030",
"x.	c #30251E",
"y.	c #341C0D",
"z.	c #2C2C2C",
"A.	c #222222",
"B.	c #361E0E",
"C.	c #332821",
"D.	c #626262",
"E.	c #4E4E4E",
"F.	c #686868",
"G.	c #FBFBFB",
"H.	c #D7D7D7",
"I.	c #CDCDCD",
"J.	c #EE8641",
"K.	c #E78B4D",
"L.	c #C3C3C3",
"M.	c #989898",
"N.	c #EF9355",
"O.	c #F48C47",
"P.	c #676767",
"Q.	c #5C5C5C",
"R.	c #3B3B3B",
"S.	c #CACACA",
"T.	c #D3B098",
"U.	c #FC6B0B",
"V.	c #D7A380",
"W.	c #CDB29F",
"X.	c #A68A78",
"Y.	c #D3B8A5",
"Z.	c #DFAB88",
"`.	c #FD6C0C",
" +	c #DBB8A0",
".+	c #343434",
"++	c #060606",
"@+	c #868686",
"#+	c #F8F8F8",
"$+	c #E4915A",
"%+	c #F67620",
"&+	c #F67621",
"*+	c #ED6D18",
"=+	c #F77721",
"-+	c #F87822",
";+	c #E8965F",
">+	c #B2B2B2",
",+	c #969696",
"'+	c #1A1A1A",
")+	c #C8C8C8",
"!+	c #939393",
"~+	c #CECECE",
"{+	c #D3D3D3",
"]+	c #B1B1B1",
"^+	c #131313",
"/+	c #696969",
"(+	c #FAFAFA",
"_+	c #D0D0D0",
":+	c #CFCFCF",
"<+	c #999999",
"[+	c #7A7A7A",
"}+	c #171717",
"|+	c #F2F2F2",
"1+	c #898989",
"2+	c #101010",
"3+	c #878787",
"4+	c #5F5F5F",
"5+	c #909090",
"6+	c #F4F4F4",
"7+	c #5B5B5B",
"8+	c #585858",
"9+	c #090909",
"0+	c #505050",
"a+	c #424242",
"b+	c #595959",
"c+	c #5D5D5D",
"d+	c #575757",
"e+	c #232323",
"f+	c #474747",
"g+	c #8C8C8C",
"h+	c #EDEDED",
"i+	c #7C7C7C",
"j+	c #0C0C0C",
"k+	c #747474",
"l+	c #828282",
"m+	c #A9A9A9",
"n+	c #B8B8B8",
"o+	c #DFDFDF",
"p+	c #959595",
"q+	c #3E3E3E",
"r+	c #494949",
"s+	c #C2C2C2",
"t+	c #979797",
"u+	c #BFBFBF",
"v+	c #6F6F6F",
"w+	c #F1F1F1",
"x+	c #B4B4B4",
"  . . + @ . #             $                   $     ",
"% & * = - ; ; > , $ $ $ $ ' $ $ $ $ $ $ $ $ $ ' $ $ ",
") ! ~ { ] ^ ^ / (         $                   $     ",
"! _ ( : ] ^ ^ / < #       $                   $     ",
"[ < } | ] ^ ^ / 1 #       $                   $     ",
"2 3 4 5 6 7 8 9 0 .       $                   $     ",
"2 a b c d e f g ) @ # # # h                   $     ",
"i j k l m n o p q r s s s t s s u v g         $     ",
"i w x y z A z B C 5 5 5 5 D 5 5 E F G H I     $     ",
"J ( K L I M f _ N O O O P Q O O [ R S T U S [ $     ",
"_ V 3 p K M f W X W Y Y Z ` W Y  .Y ..* +.@.#.$.    ",
"%.&.q c *.=.-.;.>.,.r '.).).!., ~.*.{.q ].^./.(.h $ ",
"_.2 :.' R <.a [ J  .< [.}.|.1.X ( a 2.3.} 4.5.=.%   ",
"6.7.0 &.X U 8._.i R 9.0.a.b.c.d.W e.f.v + g.5.h.l # ",
"i.j.i >.0 U s k.d ,.l.m.&.n.o.p.q.S D r.,.s.5.5.4.@ ",
"t.u.i u W U v.w.G x.y.v.z.A.w.B.C.4.D.E.k F.5.5.4.G.",
"t.! 2 ,.H.<.f ( I.J.K.L.I M.< N.O.% P.r ;.Q.5.h.R.t.",
"t.! _ r 1 <.* S.T.U.V.W.W.X.Y.Z.`. +3.k.s .+5.++@+#+",
"t.! _ r 8.M k.I $+%+&+&+%+*+%+=+-+;+2.>+,+'+h.4.V #+",
"t.! 2 , < <.b )+I K 3 3 )+!+e.~+{+8.2.]+g.@.^+/+j.(+",
"t.u.i u :.<.+ _+~+_+1 1 :+<+:+( R 1 } [+U }+n.$.|+G.",
"& >+%.1+u 2+L ,., ,.&.&., @+, &.s 3+4+U y P.r 5+* + ",
"6+D.7+: 8+9+0+H H H H H H a+b+c+d+e+f+g+L.8.2 k.(+# ",
"h+j c 7+i+j+k+j @+@+@+@+j D.l+p m+~+K a < J ! n+.   ",
"N Y 1 M.I M & o+J J J J J ;.X  .V < V ..N ! i.+     ",
"_ H.I.p+q+].r+s+0 _ _ _ _ ;.0 o+o+_ N _.6.#+@ h     ",
"i :.:+t+[+u+v+i O O [ [ [ d ~ g _.! 6.i.G..   $     ",
"_.J H.~.V <.I.j.u.w+w+w+w+x+6.6+) t.G.. #     $     "};
