/* XPM */
static char * xterm_linux_xpm[] = {
"57 48 106 2",
"  	c None",
". 	c #020204",
"+ 	c #0A0604",
"@ 	c #3C3C3C",
"# 	c #0C0C0C",
"$ 	c #747474",
"% 	c #B3B3B3",
"& 	c #141413",
"* 	c #D9D9D9",
"= 	c #1C1C1B",
"- 	c #556B2F",
"; 	c #9C9C9C",
"> 	c #B5B4B3",
", 	c #8D8D8C",
"' 	c #BEBDBC",
") 	c #C4C4C4",
"! 	c #D4D4D4",
"~ 	c #ECECEC",
"{ 	c #CCCCCC",
"] 	c #444444",
"^ 	c #FEFEFC",
"/ 	c #5C5C5C",
"( 	c #42F558",
"_ 	c #FFFF00",
": 	c #0000FF",
"< 	c #6C6C6B",
"[ 	c #242424",
"} 	c #343434",
"| 	c #F4F4F4",
"1 	c #C2930B",
"2 	c #E1B40A",
"3 	c #9A770B",
"4 	c #C6B684",
"5 	c #00FFFF",
"6 	c #FF0000",
"7 	c #A2895C",
"8 	c #DAA309",
"9 	c #ECB40B",
"0 	c #E2BC0C",
"a 	c #F2DA2C",
"b 	c #F6D630",
"c 	c #F6C62C",
"d 	c #220000",
"e 	c #C78A08",
"f 	c #EBBC0B",
"g 	c #EDCC0E",
"h 	c #F4D543",
"i 	c #F6DA14",
"j 	c #B49306",
"k 	c #D19B09",
"l 	c #7F7F7F",
"m 	c #F2B60C",
"n 	c #EBC40C",
"o 	c #F1D42A",
"p 	c #F6D50D",
"q 	c #CF9407",
"r 	c #D89C08",
"s 	c #96720B",
"t 	c #7D5305",
"u 	c #8E6A07",
"v 	c #B98309",
"w 	c #C08507",
"x 	c #7C7C7C",
"y 	c #4A4A4C",
"z 	c #9D6A07",
"A 	c #B67E0A",
"B 	c #A46D05",
"C 	c #B49654",
"D 	c #E4E4E4",
"E 	c #A4A4A4",
"F 	c #DDDDDC",
"G 	c #2C2C2C",
"H 	c #A4770A",
"I 	c #E5AC09",
"J 	c #EBB316",
"K 	c #F5BD0C",
"L 	c #DFA509",
"M 	c #F3CD0C",
"N 	c #C39A0E",
"O 	c #CF9418",
"P 	c #AA7E0A",
"Q 	c #553B06",
"R 	c #FFFFFF",
"S 	c #1F1604",
"T 	c #B37907",
"U 	c #9B6605",
"V 	c #C98E07",
"W 	c #B68C08",
"X 	c #949494",
"Y 	c #838384",
"Z 	c #5C4309",
"` 	c #D7960D",
" .	c #493006",
"..	c #744E22",
"+.	c #976105",
"@.	c #AB7205",
"#.	c #CE8E08",
"$.	c #291C04",
"%.	c #6C4505",
"&.	c #8F5A04",
"*.	c #C18B0A",
"=.	c #906007",
"-.	c #533606",
";.	c #744904",
">.	c #603E05",
",.	c #402C07",
"                                                                                                                  ",
"                                                                                                                  ",
"                                                                                                                  ",
"                                                                        . . .                                     ",
"                                                                    . . . . . . . .                               ",
"                                                                  . . . . . . + @ + .                             ",
"                                                                . . . . . . . # $ @ . .                           ",
"                          % % % % % % % % % % % % % % % % % % % . . . . . . . # & . . .                           ",
"                        % * * * * * * * * * * * * * * * * * * * . . . . . . . . . . . .                           ",
"                      % * * * * * * * * * * * * * * * * * * * * . . # + . . . = . + . . .                         ",
"                      % * * - - - - - - - - - - - - - - - - - - . ; > . . . , ' ) . . . .                         ",
"                      % * * - - - - - - - - - - - - - - - - - - . ! ~ { . ] ^ # ^ / . . .                         ",
"                      % * * - - ( ( - ( - - _ - : : : : - - ( - . . < ~ # [ [ # } | . . .                         ",
"                      % * * - - - - - - - - - - - - - - - - - - . } + 1 2 3 4 . [ ) . . .                         ",
"                      % * * - - 5 5 ( ( - 6 6 - _ _ _ - - - - - . 7 8 9 0 a b c 2 # . . .                         ",
"                      % * * - - - - d - - - - - - - - - - - - - . e 9 f g h i i j k . . . l                       ",
"                      % * * - - _ _ _ _ ( ( ( ( ( ( - ( ( ( ( ( . k m n o p g q r s . . . .                       ",
"                      % * * - - - - - - - - - - - - - - - - - - . ' t u u v q w ' ' . x y .                       ",
"                      % * * - - : : : - ( ( ( ( - 6 6 - - ( ( ( . ' ' z A B C > D ^ . . . . .                     ",
"                      % * * - - - - - - - - - - - - - - - - - . . ~ ' ' ' ' ) ~ ^ ^ ' . . . .                     ",
"                      % * * - - ( - - - - - - - - - - - - - - # ~ ^ ! ' ' ! | ^ ^ ^ ^ . . . . .                   ",
"                      % * * - - - - - - - - - - - - - - - - . . ^ ^ ^ | ^ ^ ^ ^ ^ ^ ^ # . . . .                   ",
"                      % * * - - 6 6 6 6 - ( - _ _ _ - ( - . . ! ^ ^ ^ ^ ^ ^ ^ ^ ^ ^ ^ ~ . . . . .                 ",
"                      % * * - - - - - - - - - - - - - - . . . E ~ | | F F ^ ^ D ! { ) F . . . . . .               ",
"                      % * * - - ( - 5 5 5 5 - - - - - - . . G ! ^ ^ ^ D ^ | ^ ^ ^ | ! ' ^ . } . . . .             ",
"                      % * * * - - - - - - - - - - - - . + . { ^ ^ ^ ^ ^ ^ ^ ^ ^ ^ ^ ^ | ) . . } . . .             ",
"                      % * * * * * * * * * * * * * * * . # . ^ ^ ^ ^ ^ ^ ^ ^ ^ ^ ^ ^ ^ ^ ^ | # } & . . .           ",
"                        % * * * * * * * * * * * * * * . . | ^ | ^ ^ | ^ ^ | ^ ^ ^ ^ ^ ^ ^ ^ # . . . . .           ",
"                              l l l l l l l l l l l . ] . ^ ^ ^ ^ ^ ~ ^ ^ ^ ^ ^ | ^ ^ ^ ^ ^ . . . . . .           ",
"                                % % % % % % % % % % . . < ^ ^ ^ ^ ^ D ^ | ^ ^ ^ ^ ^ ^ ^ ^ ^ . . . . . .           ",
"                              l l l l l l l l l l . . . ^ | ^ ^ ^ ^ F ^ ^ ^ ^ ^ ^ ^ ^ ^ ^ ^ = . . . . . .         ",
"                          l * * * * * * * * * * * . # . ^ | ^ ^ ^ ^ F ^ ^ ^ ^ ^ ^ ^ ^ ^ ^ ^ @ . # . . . .         ",
"                          l * * * * * * * * * * * . . . ^ ^ ^ ^ ^ ^ F ^ ^ | ^ ^ | ^ | ^ | ^ [ . # . . . .         ",
"                      l l l l l l l l l l l l l l H I . | ^ ^ ^ ^ ^ F ^ ^ ^ ^ ^ ^ ^ ^ ^ ^ ^ . . . . } .           ",
"                    l * * * * * * * * * * * * * * J K I # ^ ^ ^ ^ ^ F ^ ^ ^ ^ ^ ^ | ^ ^ L M N . . . & =           ",
"                  l * * * * * * * * * * * * * * O m K K P . | ^ ^ ^ D ^ ^ ^ ^ ^ ^ ^ ^ ^ L K Q . . . . 1 M         ",
"                  l * * R R R R R R R R A L L I m K K K K S + , ^ ^ ^ ^ ^ ^ ^ ^ | ^ ^ { r 9 T + . . U 9 m         ",
"                l * * * * * * * * * * * V m K K K K K K K n . . # ^ | ^ ^ ^ ^ ^ ^ ^ ^ ) r 9 q w A w I m K         ",
"              l * * R R R R R R R R R R v 9 K K K K K K K K W . . X ^ ^ ^ | ^ ^ ^ ^ ^ ) v 9 I L 8 I K K K m       ",
"            l * * * * * * * * * * * * * A J K K K K K K K K M . . Y ^ ^ ^ ^ | ^ ^ ^ ^ ) v I m m 9 m K K K K K     ",
"            l l l l l l l l l l l l l l v I K K K K K K K K f 8 ^ ^ ^ ^ ^ ^ ^ ^ ^ ^ ~ . v I m K K K K K K K K K   ",
"                                        w m K K K K K K K K K n Z ^ ^ ^ ^ ^ ^ ^ ^ # . . T 9 K K K K K K K K m `   ",
"                                        ` K K K K K K K K K K I v . ^ ^ ^ ^ | + . . . . v I K K K K K K m r       ",
"                                        e r I I m m K K K K K 9 T  .. . . . . . . . . S A I K K K m I r ..        ",
"                                          +.@.w w #.r I m m m r +. .. . . . . . . . . $.@.` 9 m 9 r w             ",
"                                                  %.&.z A *.w U %..                     &.T w V T =.              ",
"                                                        -.%.;.>.                        ,.%.+.=.>.                ",
"                                                                                                                  "};
