/* XPM */
static char * sdd_tool_xpm[] = {
"52 54 229 2",
"  	c None",
". 	c #000032",
"+ 	c #000065",
"@ 	c #322100",
"# 	c #654100",
"$ 	c #320000",
"% 	c #650000",
"& 	c #000067",
"* 	c #0000CD",
"= 	c #674200",
"- 	c #CD8500",
"; 	c #670000",
"> 	c #CD0000",
", 	c #000066",
"' 	c #664200",
") 	c #660000",
"! 	c #3A3AD8",
"~ 	c #7575E4",
"{ 	c #D8A13A",
"] 	c #E4BD75",
"^ 	c #D83A3A",
"/ 	c #E47575",
"( 	c #4646DB",
"_ 	c #0C0CCF",
": 	c #7A7AE5",
"< 	c #8080E6",
"[ 	c #DBA746",
"} 	c #CF8B0C",
"| 	c #E5BF7A",
"1 	c #E6C280",
"2 	c #DB4646",
"3 	c #CF0C0C",
"4 	c #E57A7A",
"5 	c #E68080",
"6 	c #3838D8",
"7 	c #8181E6",
"8 	c #0707CE",
"9 	c #4747DB",
"0 	c #D8A038",
"a 	c #E6C381",
"b 	c #CE8807",
"c 	c #DBA747",
"d 	c #D83838",
"e 	c #E68181",
"f 	c #CE0707",
"g 	c #DB4747",
"h 	c #B6B6F1",
"i 	c #6E6EE2",
"j 	c #3737D8",
"k 	c #7777E4",
"l 	c #4949DB",
"m 	c #F1DCB6",
"n 	c #E2B96E",
"o 	c #D89F37",
"p 	c #E4BE77",
"q 	c #DBA849",
"r 	c #F1B6B6",
"s 	c #E26E6E",
"t 	c #D83737",
"u 	c #E47777",
"v 	c #DB4949",
"w 	c #1313D1",
"x 	c #0A0ACF",
"y 	c #D18E13",
"z 	c #CF8A0A",
"A 	c #D11313",
"B 	c #CF0A0A",
"C 	c #00003E",
"D 	c #00007D",
"E 	c #000033",
"F 	c #00005A",
"G 	c #332100",
"H 	c #330700",
"I 	c #5A0000",
"J 	c #330000",
"K 	c #7D0000",
"L 	c #3E0000",
"M 	c #2E2ED6",
"N 	c #5D5DDF",
"O 	c #D69B2E",
"P 	c #DFB15D",
"Q 	c #D62E2E",
"R 	c #DF5D5D",
"S 	c #5252DD",
"T 	c #2424D4",
"U 	c #9191EA",
"V 	c #DDAC52",
"W 	c #D49624",
"X 	c #DD5252",
"Y 	c #D42424",
"Z 	c #DD5151",
"` 	c #2C2CD6",
" .	c #ACACEF",
"..	c #D69A2C",
"+.	c #D62C2C",
"@.	c #AAAAEE",
"#.	c #5656DE",
"$.	c #2B2BD5",
"%.	c #5555DE",
"&.	c #2929D5",
"*.	c #9494EA",
"=.	c #1414D1",
"-.	c #EED7AA",
";.	c #DEAE56",
">.	c #D59A2B",
",.	c #EEAAAA",
"'.	c #DE5656",
").	c #D52B2B",
"!.	c #DE5555",
"~.	c #E26B6B",
"{.	c #D11414",
"].	c #1515D1",
"^.	c #D18F15",
"/.	c #D11515",
"(.	c #001A00",
"_.	c #003400",
":.	c #001514",
"<.	c #002A28",
"[.	c #142200",
"}.	c #905D00",
"|.	c #141500",
"1.	c #282A00",
"2.	c #004500",
"3.	c #008B00",
"4.	c #333333",
"5.	c #004600",
"6.	c #404040",
"7.	c #239B23",
"8.	c #45AA45",
"9.	c #5A5A5A",
"0.	c #747474",
"a.	c #1E991E",
"b.	c #3CA63C",
"c.	c #9DD39D",
"d.	c #62B762",
"e.	c #80C580",
"f.	c #898989",
"g.	c #9F9F9F",
"h.	c #878787",
"i.	c #6D6D6D",
"j.	c #40A840",
"k.	c #61B761",
"l.	c #1F991F",
"m.	c #3FA83F",
"n.	c #81C681",
"o.	c #5FB65F",
"p.	c #A0D4A0",
"q.	c #575757",
"r.	c #A0A0A0",
"s.	c #585858",
"t.	c #C0E2C0",
"u.	c #3EA73E",
"v.	c #209A20",
"w.	c #B7B7B7",
"x.	c #6E6E6E",
"y.	c #888888",
"z.	c #219A21",
"A.	c #43A943",
"B.	c #595959",
"C.	c #727272",
"D.	c #003700",
"E.	c #006E00",
"F.	c #3D2E13",
"G.	c #480000",
"H.	c #900000",
"I.	c #482F00",
"J.	c #000090",
"K.	c #000048",
"L.	c #D11717",
"M.	c #D62D2D",
"N.	c #D19017",
"O.	c #D69B2D",
"P.	c #1717D1",
"Q.	c #2D2DD6",
"R.	c #DD5353",
"S.	c #EED6A9",
"T.	c #DDAD53",
"U.	c #D5992A",
"V.	c #A9A9EE",
"W.	c #EFD7AC",
"X.	c #D18F14",
"Y.	c #D42626",
"Z.	c #E26C6C",
"`.	c #D49726",
" +	c #E2B96C",
".+	c #5858DE",
"++	c #DF5B5B",
"@+	c #DFB05B",
"#+	c #130000",
"$+	c #250000",
"%+	c #B60000",
"&+	c #5B0000",
"*+	c #0000B6",
"=+	c #000025",
"-+	c #000013",
";+	c #3E2800",
">+	c #CF0B0B",
",+	c #CF8A0B",
"'+	c #0B0BCF",
")+	c #E47676",
"!+	c #DB4A4A",
"~+	c #E4BD76",
"{+	c #E2B86B",
"]+	c #DBA84A",
"^+	c #7676E4",
"/+	c #6B6BE2",
"(+	c #4A4ADB",
"_+	c #CF0808",
":+	c #D93F3F",
"<+	c #CF8908",
"[+	c #0808CF",
"}+	c #3F3FD9",
"|+	c #E78787",
"1+	c #D00E0E",
"2+	c #E57878",
"3+	c #E7C587",
"4+	c #D08C0E",
"5+	c #8787E7",
"6+	c #0E0ED0",
"7+	c #7878E5",
"8+	c #E37272",
"9+	c #D83939",
"0+	c #E3BC72",
"a+	c #D8A039",
"b+	c #7272E3",
"c+	c #3939D8",
"d+	c #C90000",
"e+	c #C98300",
"f+	c #0000C9",
"                                                                                                        ",
"  . + + + + + + + + + .                   @ # # # # # # # # # @                   $ % % % % % % % % % $ ",
"  & * * * * * * * * * &                   = - - - - - - - - - =                   ; > > > > > > > > > ; ",
"  , * * * * * * * * * ,                   ' - - - - - - - - - '                   ) > > > > > > > > > ) ",
"  , ! ~ * ! ~ * ! ~ * ,                   ' { ] - { ] - { ] - '                   ) ^ / > ^ / > ^ / > ) ",
"  & ( _ : ( _ : < _ : &                   = [ } | [ } | 1 } | =                   ; 2 3 4 2 3 4 5 3 4 ; ",
"  , 6 7 8 6 7 8 9 7 < ,                   ' 0 a b 0 a b c a 1 '                   ) d e f d e f g e 5 ) ",
"  , h i j h i j k i l ,                   ' m n o m n o p n q '                   ) r s t r s t u s v ) ",
"  , w w x w w x x w * ,                   ' y y z y y z z y - '                   ) A A B A A B B A > ) ",
"  & * * * * * * * * * &                   = - - - - - - - - - =                   ; > > > > > > > > > ; ",
"  , * * * * * * * * * ,                   ' - - - - - - - - - '                   ) > > > > > > > > > ) ",
"  C D D D D D D D D D E F F F F F F F F F G ' ' ' ' ' ' ' ' ' H I I I I I I I I I J K K K K K K K K K L ",
"                      , * * * * * * * * * ' - - - - - - - - - ) > > > > > > > > > )                     ",
"                      & * * * * * * * * * = - - - - - - - - - ; > > > > > > > > > ;                     ",
"                      , M N * M N * * N * ' O P - - O - O P - ) Q R > Q R > R R Q )                     ",
"                      , S T i < T i i U * ' V W n n 1 - V W n ) X Y s 5 Y s Y Z X )                     ",
"                      , ` 7 w < * <  . .` ' ..a y y 1 - ..a y ) +.e A 5 > 5 > 5 > )                     ",
"                      , @.#.$.< #.%.&.*.=.' -.;.>.- 1 - -.;.>.) ,.'.).5 '.!.~.{.> )                     ",
"                      , $.$.].].$.* * ].* ' >.>.^.- ^.- >.>.^.) ).)././.).> /.> > )                     ",
"                      , * * * * * * * * * ' - - - - - - - - - ) > > > > > > > > > )                     ",
"                      & * * * * * * * * * = - - - - - - - - - ; > > > > > > > > > ;                     ",
"  (._._._._._._._._._.:.<.<.<.<.<.<.<.<.<.[.}.}.}.}.}.}.}.}.}.|.1.1.1.1.1.1.1.1.1.|._._._._._._._._._.(.",
"  2.3.3.3.3.3.3.3.3.3.2.3.3.3.3.3.3.3.3.3.2.4.4.4.4.4.4.4.4.4.2.3.3.3.3.3.3.3.3.3.2.3.3.3.3.3.3.3.3.3.2.",
"  5.3.3.3.3.3.3.3.3.3.5.3.3.3.3.3.3.3.3.3.5.6.6.6.6.6.6.6.6.6.5.3.3.3.3.3.3.3.3.3.5.3.3.3.3.3.3.3.3.3.5.",
"  5.3.7.8.8.7.8.8.3.3.5.3.3.8.7.3.7.7.3.3.5.6.9.6.9.0.6.9.0.6.5.3.3.8.7.3.8.7.3.3.5.3.7.8.8.7.8.8.3.3.5.",
"  2.3.a.b.c.a.b.c.3.3.2.3.d.b.e.3.e.e.3.3.2.f.g.6.h.i.f.g.i.f.2.3.d.b.e.j.b.e.3.3.2.3.a.b.c.a.b.c.3.3.2.",
"  2.3.3.k.l.3.k.l.3.3.2.3.m.n.e.k.o.p.3.3.2.q.r.6.s.r.q.h.r.r.2.3.l.n.t.3.j.e.3.3.2.3.3.k.l.3.k.l.3.3.2.",
"  2.3.3.e.3.3.e.3.3.3.2.3.k.u.e.v.j.p.3.3.2.6.g.6.w.x.q.h.x.y.2.3.j.u.e.j.u.e.3.3.2.3.3.e.3.3.e.3.3.3.2.",
"  5.3.3.z.3.3.z.3.3.3.5.3.3.A.z.3.3.z.3.3.5.6.B.6.C.C.B.B.C.6.5.3.3.A.z.3.A.z.3.3.5.3.3.z.3.3.z.3.3.3.5.",
"  5.3.3.3.3.3.3.3.3.3.5.3.3.3.3.3.3.3.3.3.5.6.6.6.6.6.6.6.6.6.5.3.3.3.3.3.3.3.3.3.5.3.3.3.3.3.3.3.3.3.5.",
"  2.3.3.3.3.3.3.3.3.3.2.3.3.3.3.3.3.3.3.3.2.6.6.6.6.6.6.6.6.6.2.3.3.3.3.3.3.3.3.3.2.3.3.3.3.3.3.3.3.3.2.",
"  D.E.E.E.E.E.E.E.E.E.D.E.E.E.E.E.E.E.E.E.D.F.F.F.F.F.F.F.F.F.D.E.E.E.E.E.E.E.E.E.D.E.E.E.E.E.E.E.E.E.D.",
"                      G.H.H.H.H.H.H.H.H.H.G.- - - - - - - - - I.J.J.J.J.J.J.J.J.J.K.                    ",
"                      ) > > > > > > > > > ) - - - - - - - - - ' * * * * * * * * * ,                     ",
"                      ) > L.> > L.> L.M.> ) - N.- O.O.N.N.O.- ' * P.* * P.* * Q.* ,                     ",
"                      ) '.5 > '.5 > 5 R.'.) ;.1 - S.T.U.1 T.;.' #.< * #.< * #.V.* ,                     ",
"                      ) ).5 > ).5 > ~.e 5 ) >.1 - W.a X.1 - 1 ' $.< * $.< * *.*.=.,                     ",
"                      ; > 5 > > 5 > R.Y.Z.; - 1 - T.`. +1 `. += * < * * < * .+ .` &                     ",
"                      ) > M.> > M.> M.++> ) - O.- O.@+- O.@+- ' * Q.* * Q.* * Q.* ,                     ",
"                      ) > > > > > > > > > ) - - - - - - - - - ' * * * * * * * * * ,                     ",
"                      ; > > > > > > > > > ; - - - - - - - - - = * * * * * * * * * &                     ",
"  #+$+$+$+$+$+$+$+$+$+J %+%+%+%+%+%+%+%+%+&+' ' ' ' ' ' ' ' ' G *+*+*+*+*+*+*+*+*+E =+=+=+=+=+=+=+=+=+-+",
"  ) > > > > > > > > > )                   ;+- - - - - - - - - '                   , * * * * * * * * * , ",
"  ) > > > > > > > > > )                   ' - - - - - - - - - '                   , * * * * * * * * * , ",
"  ) >+/.> > >+> >+/.> )                   ' ,+^.- ,+^.- ,+^.- '                   , '+].* * '+* '+].* , ",
"  ) )+~.!+!+5 > 5 ~.!+)                   ' ~+{+]+~+{+]+~+{+]+'                   , ^+/+(+(+< * < /+(+, ",
"  ) _+e t t 5 > 5 e :+)                   ' <+a o <+a o <+a o '                   , [+7 j j < * < 7 }+, ",
"  ) |+1+f > 5 > 5 1+2+)                   ' 3+4+b 3+4+b 3+4+b '                   , 5+6+8 * < * < 6+7+, ",
"  ) 8+8+9+> 9+> 9+8+> )                   ' 0+0+a+0+0+a+0+0+a+'                   , b+b+c+* c+* c+b+* , ",
"  ) > > > > > > > > > )                   ' - - - - - - - - - '                   , * * * * * * * * * , ",
"  ) > > > > > > > > > )                   ' - - - - - - - - - '                   , * * * * * * * * * , ",
"  % d+d+d+d+d+d+d+d+d+%                   # e+e+e+e+e+e+e+e+e+#                   + f+f+f+f+f+f+f+f+f++ ",
"                                                                                                        ",
"                                                                                                        "};
