/* XPM */
static char *xterm_small_xpm[] = {
/* width height ncolors chars_per_pixel */
"32 32 6 1",
/* colors */
"` c gainsboro",
"a c grey",
"b c dark slate grey",
"c c red",
"d c white",
"e c slate grey",
/* pixels */
"dddddddddddddddddddddddddddddddd",
"dddddddddddddddddddddddddddddddd",
"dddddddddddddddddddddddddddddddd",
"dddddddddddddddddddddddddddddddd",
"dddddddddddddddddddddddddddddddd",
"dddddddddddddddddddddddddddddddd",
"dddddddddddddaaaaaaaaaaaaaaddddd",
"dddddddddddd```````````````edddd",
"dccccddddddd`bcbbbbbbbbbbb`eeddd",
"dcccccdddddd`ccbdbddddddbb`eeddd",
"ddcccccdddddccbbbbbbbbbbbb`eeedd",
"dddcccccdddccbdddddddddbbb`eeedd",
"ddddcccccdcc`bbbbbbbbbbbbb`eeedd",
"dddddcccdcdd`bdddbbddddbbb`eeedd",
"ddddddcdcccd`bbbbbbbbbbbbb`eeedd",
"dddddcdccccc`bddddbbbdddbb`eeedd",
"ddddccddccccc`bbbbbbbbbbb``eeddd",
"dddccddddccccc`````````````edddd",
"ddccddddddcccccaaaaaaaaaaaaaeddd",
"dccddddddddccccc```````````eeada",
"ccddddddddddeeeeeeeeeeeeee`eedda",
"ddddddddddde`````````````eeedddd",
"ddddddddddd`dddddddddd```edeeeae",
"dddddddddd`ddddddddddd``edd```ad",
"dddddddddeeeeeeeeeeeeeeedddeeedd",
"dddddddddddddddddddddddddddddddd",
"dddddddddddddddddddddddddddddddd",
"dddddddddddddddddddddddddddddddd",
"dddddddddddddddddddddddddddddddd",
"dddddddddddddddddddddddddddddddd",
"dddddddddddddddddddddddddddddddd",
"dddddddddddddddddddddddddddddddd"
};
