/* XPM */
static char * xterm_color_blank_xpm[] = {
"45 38 11 1",
"       s mask  c none",
".	c #B3B3B3B3B3B3",
"X	c #D9D9D9D9D9D9",
"o	c #7F7F7F7F7F7F",
"O	c #55556B6B2F2F",
"+	c #4242F5F55858",
"@	c #FFFFFFFF0000",
"#	c #00000000FFFF",
"$	c #0000FFFFFFFF",
"%	c #FFFF00000000",
"&	c #FFFFFFFFFFFF",
"                                             ",
"                                             ",
"       ...........................           ",
"      .XXXXXXXXXXXXXXXXXXXXXXXXXXX.          ",
"     .XXXXXXXXXXXXXXXXXXXXXXXXXXXXXoo        ",
"     .XXOOOOOOOOOOOOOOOOOOOOOOOXXXXoo        ",
"     .XXOOOOOOOOOOOOOOOOOOOOOOOOXXXooo       ",
"     .XXOO++O+OO@O####OO+OOOOOOOXXXooo       ",
"     .XXOOOOOOOOOOOOOOOOOOOOOOOOXXXoooo      ",
"     .XXOO$$++O%%O@@@OOOOOOOOOOOXXXoooo      ",
"     .XXOOOO OOOOOOOOOOOOOOOOOOOXXXooooo     ",
"     .XXOO@@@@++++++O+++++OOOOOOXXXooooo     ",
"     .XXOOOOOOOOOOOOOOOOOOOOOOOOXXXooooo     ",
"     .XXOO###O++++O%%OO+++OOOOOOXXXooooo     ",
"     .XXOOOOOOOOOOOOOOOOOOOOOOOOXXXooooo     ",
"     .XXOO+OOOOOOOOOOOOOOOOOOOOOXXXooooo     ",
"     .XXOOOOOOOOOOOOOOOOOOOOOOOOXXXooooo     ",
"     .XXOO%%%%O+O@@@O+OOOOOOOOOOXXXooooo     ",
"     .XXOOOOOOOOOOOOOOOOOOOOOOOOXXXooooo     ",
"     .XXOO+O$$$$OOOOOOOOOOOOOOOOXXXooooo     ",
"     .XXXOOOOOOOOOOOOOOOOOOOOOOXXXXoooo      ",
"     .XXXXXXXXXXXXXXXXXXXXXXXXXXXXXooo       ",
"      .XXXXXXXXXXXXXXXXXXXXXXXXXXXooo        ",
"         ooooooooooooooooooooooooo...oo      ",
"          ..........................ooo      ",
"         oooooooooooooooooooooooooooooo      ",
"       oXXXXXXXXXXXXXXXXXXXXXXXXXXXoooo.. .. ",
"       oXXXXXXXXXXXXXXXXXX       XXoooo  .  .",
"     oooooooooooooooooooooooooooXXXooo     . ",
"    oXXXXXXXXXXXXXXXXXXXXXXXXXXooooo      .  ",
"   oXXXXXXXXXXXXXXXXXXXXXXXXXXoo      oooooo ",
"   oXX&&&&&&&&&&&&&&&&&&&XXXXXoo   ooooo...o ",
"  oXXXXXXXXXXXXXXXXXXXXXXXXXXoo   ooXXXoo..o ",
" oXX&&&&&&&&&&&&&&&&&&&&XXXXoo    oXXXXX..o  ",
"oXXXXXXXXXXXXXXXXXXXXXXXXXXoo     o.....oo   ",
"oooooooooooooooooooooooooooo      ooooooo    ",
"                                             ",
"                                             "};
